<svg width="12" height="12" viewBox="0 0 12 12" fill="none" xmlns="http://www.w3.org/2000/svg">
<path d="M12 1.89474V3.15789H10.1053V5.05263H8.8421V3.15789H6.94737V1.89474H8.8421V0H10.1053V1.89474H12ZM10.1053 10.7368H1.26316V1.89474H5.05263V0.631579H1.26316C0.928455 0.632579 0.607746 0.765982 0.371075 1.00265C0.134403 1.23933 0.000999617 1.56003 0 1.89474V10.7368C0.000999617 11.0715 0.134403 11.3923 0.371075 11.6289C0.607746 11.8656 0.928455 11.999 1.26316 12H10.1053C10.44 11.999 10.7607 11.8656 10.9973 11.6289C11.234 11.3923 11.3674 11.0715 11.3684 10.7368V6.94737H10.1053V10.7368Z" fill="#4C494F"/>
</svg>
