<svg width="10" height="12" viewBox="0 0 10 12" fill="none" xmlns="http://www.w3.org/2000/svg">
    <path d="M4.66667 5.33333C5.19408 5.33333 5.70966 5.17694 6.14819 4.88392C6.58672 4.5909 6.92851 4.17443 7.13035 3.68716C7.33218 3.19989 7.38499 2.66371 7.2821 2.14643C7.1792 1.62914 6.92523 1.15399 6.55229 0.78105C6.17935 0.40811 5.70419 0.154134 5.18691 0.0512404C4.66963 -0.0516535 4.13345 0.00115542 3.64618 0.202989C3.15891 0.404823 2.74243 0.746616 2.44941 1.18515C2.1564 1.62368 2 2.13925 2 2.66667C2 3.37391 2.28095 4.05219 2.78105 4.55229C3.28115 5.05238 3.95942 5.33333 4.66667 5.33333ZM4.66667 1.33333C4.93038 1.33333 5.18816 1.41153 5.40743 1.55804C5.62669 1.70455 5.79759 1.91279 5.89851 2.15642C5.99942 2.40006 6.02583 2.66815 5.97438 2.92679C5.92293 3.18543 5.79595 3.42301 5.60948 3.60948C5.42301 3.79595 5.18543 3.92293 4.92679 3.97438C4.66815 4.02583 4.40006 3.99942 4.15642 3.89851C3.91279 3.79759 3.70455 3.62669 3.55804 3.40743C3.41153 3.18816 3.33333 2.93038 3.33333 2.66667C3.33333 2.31305 3.47381 1.97391 3.72386 1.72386C3.97391 1.47381 4.31305 1.33333 4.66667 1.33333ZM4.66667 6.66667C3.42899 6.66667 2.24201 7.15833 1.36684 8.0335C0.491665 8.90867 0 10.0957 0 11.3333C0 11.5101 0.070238 11.6797 0.195262 11.8047C0.320287 11.9298 0.489856 12 0.666667 12C0.843478 12 1.01305 11.9298 1.13807 11.8047C1.2631 11.6797 1.33333 11.5101 1.33333 11.3333C1.33333 10.4493 1.68452 9.60143 2.30964 8.97631C2.93477 8.35119 3.78261 8 4.66667 8C5.55072 8 6.39857 8.35119 7.02369 8.97631C7.64881 9.60143 8 10.4493 8 11.3333C8 11.5101 8.07024 11.6797 8.19526 11.8047C8.32029 11.9298 8.48986 12 8.66667 12C8.84348 12 9.01305 11.9298 9.13807 11.8047C9.2631 11.6797 9.33333 11.5101 9.33333 11.3333C9.33333 10.0957 8.84167 8.90867 7.9665 8.0335C7.09133 7.15833 5.90435 6.66667 4.66667 6.66667Z"
          fill="url(#paint0_linear_2_925)"/>
    <defs>
        <linearGradient id="paint0_linear_2_925" x1="4.66667" y1="0" x2="2.98697" y2="14.3293"
                        gradientUnits="userSpaceOnUse">
            <stop stop-color="#2A2D3F" stop-opacity="0.71"/>
            <stop offset="1" stop-color="#383B51" stop-opacity="0.69"/>
        </linearGradient>
    </defs>
</svg>
