<svg width="11" height="11" viewBox="0 0 11 11" fill="none" xmlns="http://www.w3.org/2000/svg">
    <path d="M7.73417 6.54243C7.76677 6.57502 7.79264 6.61372 7.81028 6.65631C7.82793 6.6989 7.83701 6.74455 7.83701 6.79066C7.83701 6.83676 7.82793 6.88241 7.81028 6.925C7.79264 6.96759 7.76677 7.00629 7.73417 7.03889L5.74844 9.02456C5.74024 9.03276 5.73166 9.04056 5.72269 9.04797C5.72088 9.04949 5.71883 9.05078 5.71696 9.05224C5.70991 9.05789 5.70265 9.06328 5.69519 9.06839C5.69303 9.06979 5.6908 9.07096 5.68864 9.07237C5.68117 9.07723 5.67352 9.08179 5.6657 9.08606C5.66395 9.08705 5.66207 9.08781 5.66026 9.08869C5.65188 9.09307 5.64333 9.09711 5.63463 9.1008C5.63329 9.10139 5.63194 9.10174 5.6306 9.10227C5.62133 9.10606 5.6119 9.10943 5.60233 9.11239C5.60099 9.11286 5.59953 9.11309 5.59812 9.1135C5.58859 9.11625 5.57899 9.11877 5.5691 9.12076C5.56618 9.12134 5.56325 9.12157 5.56032 9.1221C5.55196 9.12356 5.54359 9.12503 5.53505 9.1259C5.51174 9.12827 5.48826 9.12827 5.46495 9.1259C5.4565 9.12495 5.44809 9.12368 5.43973 9.1221C5.43681 9.12157 5.43382 9.1214 5.4309 9.12076C5.42113 9.11875 5.41144 9.11633 5.40188 9.1135C5.40047 9.11309 5.39901 9.11286 5.39767 9.11239C5.38804 9.10941 5.37856 9.10601 5.36923 9.10221L5.36537 9.1008C5.35664 9.0971 5.34807 9.09304 5.33968 9.08863C5.33793 9.08776 5.33605 9.087 5.3343 9.08606C5.32648 9.0818 5.31883 9.07723 5.31136 9.07237C5.3092 9.07096 5.30697 9.06979 5.30481 9.06839C5.29736 9.06328 5.29009 9.05789 5.28304 9.05224C5.28117 9.05078 5.27912 9.04949 5.27725 9.04791C5.26832 9.04058 5.25976 9.03281 5.25156 9.02462L3.26583 7.03889C3.19999 6.97305 3.16301 6.88375 3.16302 6.79064C3.16302 6.69753 3.20002 6.60823 3.26586 6.5424C3.3317 6.47656 3.421 6.43958 3.51411 6.43958C3.60722 6.43959 3.69652 6.47658 3.76235 6.54243L5.14894 7.92907V4.09574C5.14894 4.00264 5.18592 3.91334 5.25176 3.84751C5.3176 3.78167 5.40689 3.74468 5.5 3.74468C5.59311 3.74468 5.6824 3.78167 5.74824 3.84751C5.81408 3.91334 5.85106 4.00264 5.85106 4.09574V7.92907L7.23765 6.54243C7.27025 6.50982 7.30895 6.48396 7.35155 6.46631C7.39415 6.44866 7.4398 6.43958 7.48591 6.43958C7.53202 6.43958 7.57767 6.44866 7.62027 6.46631C7.66287 6.48396 7.70157 6.50982 7.73417 6.54243ZM11 2.2234V10.1809C10.9998 10.398 10.9134 10.6062 10.7598 10.7598C10.6062 10.9134 10.398 10.9998 10.1809 11H0.819149C0.601973 10.9998 0.393763 10.9134 0.240197 10.7598C0.0866303 10.6062 0.000247776 10.398 0 10.1809V2.2234C5.0955e-05 2.21044 0.000812823 2.19749 0.002282 2.18461C0.00263306 2.18139 0.00327655 2.17818 0.00374463 2.1749C0.00509038 2.1653 0.00667011 2.15571 0.00871798 2.14635C0.00959564 2.14272 0.0105903 2.13915 0.0115265 2.13552C0.0170431 2.11397 0.0246464 2.093 0.0342287 2.07292C0.0352819 2.07075 0.035984 2.06853 0.0370372 2.06636L0.973207 0.194021C1.00238 0.135716 1.0472 0.086683 1.10267 0.0524153C1.15813 0.0181475 1.22204 -1.93604e-06 1.28723 1.549e-10H9.71277C9.77795 2.21514e-06 9.84185 0.018154 9.8973 0.052422C9.95276 0.0866899 9.99757 0.135721 10.0267 0.194021L10.9629 2.06636C10.964 2.06847 10.9647 2.07069 10.9657 2.0728C10.9753 2.09292 10.9829 2.11393 10.9885 2.13552C10.9894 2.13915 10.9904 2.14272 10.9913 2.14635C10.9933 2.15571 10.9949 2.1653 10.9963 2.1749C10.9967 2.17818 10.9974 2.18133 10.9977 2.18461C10.9992 2.19749 10.9999 2.21044 11 2.2234ZM0.919085 1.87234H10.0809L9.49581 0.702128H1.50419L0.919085 1.87234ZM10.2979 10.1809V2.57447H0.702128V10.1809C0.702174 10.2119 0.714518 10.2416 0.736454 10.2635C0.758389 10.2855 0.788127 10.2978 0.819149 10.2979H10.1809C10.2119 10.2978 10.2416 10.2855 10.2635 10.2635C10.2855 10.2416 10.2978 10.2119 10.2979 10.1809Z"
          fill="url(#paint0_linear_2_947)"/>
    <defs>
        <linearGradient id="paint0_linear_2_947" x1="5.5" y1="0" x2="4.29599" y2="13.2059"
                        gradientUnits="userSpaceOnUse">
            <stop stop-color="#2A2D3F" stop-opacity="0.71"/>
            <stop offset="1" stop-color="#383B51" stop-opacity="0.69"/>
        </linearGradient>
    </defs>
</svg>
