<svg width="12" height="10" viewBox="0 0 12 10" fill="none" xmlns="http://www.w3.org/2000/svg">
<path d="M4.2002 0C3.40455 0 2.64148 0.292658 2.07888 0.813592C1.51627 1.33453 1.2002 2.04107 1.2002 2.77778C1.2002 3.51449 1.51627 4.22103 2.07888 4.74196C2.64148 5.2629 3.40455 5.55556 4.2002 5.55556C4.99584 5.55556 5.75891 5.2629 6.32152 4.74196C6.88413 4.22103 7.2002 3.51449 7.2002 2.77778C7.2002 2.04107 6.88413 1.33453 6.32152 0.813592C5.75891 0.292658 4.99584 0 4.2002 0ZM2.4002 2.77778C2.4002 2.33575 2.58984 1.91183 2.9274 1.59927C3.26497 1.28671 3.72281 1.11111 4.2002 1.11111C4.67759 1.11111 5.13542 1.28671 5.47299 1.59927C5.81055 1.91183 6.0002 2.33575 6.0002 2.77778C6.0002 3.21981 5.81055 3.64373 5.47299 3.95629C5.13542 4.26885 4.67759 4.44444 4.2002 4.44444C3.72281 4.44444 3.26497 4.26885 2.9274 3.95629C2.58984 3.64373 2.4002 3.21981 2.4002 2.77778Z" fill="url(#paint0_linear_2_940)"/>
<path d="M8.94484 2.89897C8.77611 2.81936 8.58942 2.77786 8.40004 2.77786V1.66675C8.77895 1.66677 9.15248 1.74987 9.49004 1.90923C9.82761 2.0686 10.1196 2.29971 10.3422 2.58365C10.5648 2.86759 10.7116 3.19629 10.7706 3.54285C10.8296 3.88942 10.7992 4.244 10.6817 4.57757C10.5643 4.91115 10.3633 5.21424 10.0951 5.46205C9.82683 5.70987 9.49904 5.89535 9.13852 6.00333C8.778 6.11131 8.39499 6.13871 8.02083 6.0833C7.64667 6.02789 7.292 5.89124 6.98584 5.68453L7.69264 4.78675C7.82645 4.87692 7.97897 4.94049 8.14059 4.97346C8.30222 5.00644 8.46946 5.00809 8.63181 4.97833C8.79416 4.94858 8.94811 4.88804 9.08398 4.80054C9.21985 4.71304 9.3347 4.60046 9.42131 4.46988C9.50793 4.3393 9.56444 4.19354 9.58729 4.04177C9.61013 3.88999 9.59883 3.73548 9.55408 3.58795C9.50933 3.44042 9.43211 3.30305 9.32726 3.18448C9.22241 3.06591 9.09221 2.9687 8.94484 2.89897Z" fill="url(#paint1_linear_2_940)"/>
<path d="M10.7987 10.0001C10.7985 9.41105 10.5458 8.84619 10.0959 8.42968C9.64611 8.01317 9.03605 7.77912 8.3999 7.77897V6.66675C9.35463 6.6669 10.2702 7.01813 10.9453 7.64322C11.6204 8.26831 11.9997 9.11607 11.9999 10.0001H10.7987Z" fill="url(#paint2_linear_2_940)"/>
<path d="M8.4 9.99997H7.2C7.2 9.26326 6.88393 8.55672 6.32132 8.03579C5.75871 7.51485 4.99565 7.2222 4.2 7.2222C3.40435 7.2222 2.64129 7.51485 2.07868 8.03579C1.51607 8.55672 1.2 9.26326 1.2 9.99997H0C0 8.96858 0.442499 7.97942 1.23015 7.25011C2.0178 6.52081 3.08609 6.11108 4.2 6.11108C5.31391 6.11108 6.38219 6.52081 7.16985 7.25011C7.9575 7.97942 8.4 8.96858 8.4 9.99997Z" fill="url(#paint3_linear_2_940)"/>
<defs>
<linearGradient id="paint0_linear_2_940" x1="4.2002" y1="0" x2="3.63649" y2="6.67751" gradientUnits="userSpaceOnUse">
<stop stop-color="#2A2D3F" stop-opacity="0.71"/>
<stop offset="1" stop-color="#383B51" stop-opacity="0.69"/>
</linearGradient>
<linearGradient id="paint1_linear_2_940" x1="8.89286" y1="1.66675" x2="8.32765" y2="6.98678" gradientUnits="userSpaceOnUse">
<stop stop-color="#2A2D3F" stop-opacity="0.71"/>
<stop offset="1" stop-color="#383B51" stop-opacity="0.69"/>
</linearGradient>
<linearGradient id="paint2_linear_2_940" x1="10.1999" y1="6.66675" x2="9.86168" y2="10.6733" gradientUnits="userSpaceOnUse">
<stop stop-color="#2A2D3F" stop-opacity="0.71"/>
<stop offset="1" stop-color="#383B51" stop-opacity="0.69"/>
</linearGradient>
<linearGradient id="paint3_linear_2_940" x1="4.2" y1="6.11108" x2="4.00165" y2="10.8103" gradientUnits="userSpaceOnUse">
<stop stop-color="#2A2D3F" stop-opacity="0.71"/>
<stop offset="1" stop-color="#383B51" stop-opacity="0.69"/>
</linearGradient>
</defs>
</svg>
