<svg width="28" height="28" viewBox="0 0 28 28" fill="none" xmlns="http://www.w3.org/2000/svg">
    <circle cx="14" cy="14" r="14" transform="rotate(-180 14 14)" fill="#4C494F"/>
    <path d="M18.6176 6.33017C18.8625 6.54165 19 6.82843 19 7.12745C19 7.42648 18.8625 7.71326 18.6176 7.92473L12.1526 13.5068L18.6176 19.0889C18.8555 19.3016 18.9872 19.5864 18.9842 19.8821C18.9812 20.1778 18.8438 20.4606 18.6017 20.6697C18.3595 20.8788 18.032 20.9974 17.6895 21C17.3471 21.0025 17.0171 20.8889 16.7708 20.6834L9.3824 14.3041C9.13755 14.0926 9 13.8058 9 13.5068C9 13.2078 9.13755 12.921 9.3824 12.7095L16.7708 6.33017C17.0157 6.11876 17.3479 6 17.6942 6C18.0405 6 18.3727 6.11876 18.6176 6.33017Z"
          fill="white"/>
</svg>
