<svg width="16" height="12" viewBox="0 0 16 12" fill="none" xmlns="http://www.w3.org/2000/svg">
<path d="M1 9.57143V2.42857C1 2.04969 1.16389 1.68633 1.45561 1.41842C1.74733 1.15051 2.143 1 2.55556 1H13.4444C13.857 1 14.2527 1.15051 14.5444 1.41842C14.8361 1.68633 15 2.04969 15 2.42857V9.57143C15 9.95031 14.8361 10.3137 14.5444 10.5816C14.2527 10.8495 13.857 11 13.4444 11H2.55556C2.143 11 1.74733 10.8495 1.45561 10.5816C1.16389 10.3137 1 9.95031 1 9.57143Z" stroke="url(#paint0_linear_1289_6191)"/>
<path d="M3.3335 3.14282H4.11127" stroke="url(#paint1_linear_1289_6191)" stroke-linecap="round" stroke-linejoin="round"/>
<defs>
<linearGradient id="paint0_linear_1289_6191" x1="8" y1="1" x2="7.215" y2="13.0541" gradientUnits="userSpaceOnUse">
<stop stop-color="#2A2D3F" stop-opacity="0.71"/>
<stop offset="1" stop-color="#383B51" stop-opacity="0.69"/>
</linearGradient>
<linearGradient id="paint1_linear_1289_6191" x1="3.72238" y1="3.14282" x2="3.58241" y2="4.33693" gradientUnits="userSpaceOnUse">
<stop stop-color="#2A2D3F" stop-opacity="0.71"/>
<stop offset="1" stop-color="#383B51" stop-opacity="0.69"/>
</linearGradient>
</defs>
</svg>
