<svg width="179" height="34" viewBox="0 0 179 34" fill="none" xmlns="http://www.w3.org/2000/svg">
<path d="M0 6.0011C0 2.68739 2.68629 0.00109863 6 0.00109863H173C176.314 0.00109863 179 2.68739 179 6.0011V28.0011C179 31.3148 176.314 34.0011 173 34.0011H6C2.68629 34.0011 0 31.3148 0 28.0011V6.0011Z" fill="white"/>
<path d="M48 14.5527V19.437" stroke="#616162" stroke-width="1.5" stroke-linecap="round" stroke-linejoin="round"/>
<path d="M50.4444 16.9948H45.5555" stroke="#616162" stroke-width="1.5" stroke-linecap="round" stroke-linejoin="round"/>
<path fill-rule="evenodd" clip-rule="evenodd" d="M51.1238 10.3345H44.8762C42.6984 10.3345 41.3333 11.8759 41.3333 14.0579V19.9444C41.3333 22.1264 42.692 23.6678 44.8762 23.6678H51.1238C53.3079 23.6678 54.6666 22.1264 54.6666 19.9444V14.0579C54.6666 11.8759 53.3079 10.3345 51.1238 10.3345Z" stroke="#616162" stroke-width="1.5" stroke-linecap="round" stroke-linejoin="round"/>
<path d="M73.086 21.0011L69.32 11.6631H67.878L64.126 21.0011H65.456L66.282 18.9291H70.93L71.756 21.0011H73.086ZM70.58 17.8931H66.618L68.606 12.8671L70.58 17.8931ZM80.2148 21.0011V11.6631H79.1648V15.2611C78.6188 14.5191 77.7928 14.0711 76.8828 14.0711C75.1048 14.0711 73.8728 15.4711 73.8728 17.6271C73.8728 19.8251 75.1188 21.1691 76.8828 21.1691C77.8348 21.1691 78.6608 20.6791 79.1648 19.9931V21.0011H80.2148ZM77.1348 20.2311C75.7768 20.2311 74.9648 19.1251 74.9648 17.6271C74.9648 16.1291 75.7768 15.0091 77.1348 15.0091C77.9748 15.0091 78.7868 15.5131 79.1648 16.1011V19.1671C78.7868 19.7551 77.9748 20.2311 77.1348 20.2311ZM88.2676 21.0011V11.6631H87.2176V15.2611C86.6716 14.5191 85.8456 14.0711 84.9356 14.0711C83.1576 14.0711 81.9256 15.4711 81.9256 17.6271C81.9256 19.8251 83.1716 21.1691 84.9356 21.1691C85.8876 21.1691 86.7136 20.6791 87.2176 19.9931V21.0011H88.2676ZM85.1876 20.2311C83.8296 20.2311 83.0176 19.1251 83.0176 17.6271C83.0176 16.1291 83.8296 15.0091 85.1876 15.0091C86.0276 15.0091 86.8396 15.5131 87.2176 16.1011V19.1671C86.8396 19.7551 86.0276 20.2311 85.1876 20.2311ZM97.0457 21.1691C99.5657 21.1691 100.49 19.7831 100.49 18.4251C100.49 14.9391 94.9597 16.1431 94.9597 14.0431C94.9597 13.1611 95.7577 12.5591 96.8777 12.5591C97.8997 12.5591 98.8797 12.9091 99.5797 13.6791L100.28 12.8251C99.4957 11.9991 98.3897 11.5231 96.9617 11.5231C95.1277 11.5231 93.7557 12.5731 93.7557 14.1131C93.7557 17.4451 99.2857 16.1151 99.2857 18.5231C99.2857 19.2371 98.7537 20.1331 97.0877 20.1331C95.7717 20.1331 94.7637 19.4891 94.1477 18.8031L93.4617 19.6851C94.2317 20.5531 95.4217 21.1691 97.0457 21.1691ZM105.235 21.1691C106.341 21.1691 107.251 20.8051 107.923 20.1331L107.419 19.4471C106.887 19.9931 106.103 20.3011 105.333 20.3011C103.877 20.3011 102.981 19.2371 102.897 17.9631H108.371V17.6971C108.371 15.6671 107.167 14.0711 105.123 14.0711C103.191 14.0711 101.791 15.6531 101.791 17.6131C101.791 19.7271 103.233 21.1691 105.235 21.1691ZM107.335 17.1931H102.897C102.953 16.1571 103.667 14.9391 105.109 14.9391C106.649 14.9391 107.321 16.1851 107.335 17.1931ZM113.053 21.1691C114.285 21.1691 115.013 20.6651 115.531 19.9931L114.831 19.3491C114.383 19.9511 113.809 20.2311 113.109 20.2311C111.667 20.2311 110.771 19.1111 110.771 17.6131C110.771 16.1151 111.667 15.0091 113.109 15.0091C113.809 15.0091 114.383 15.2751 114.831 15.8911L115.531 15.2471C115.013 14.5751 114.285 14.0711 113.053 14.0711C111.037 14.0711 109.679 15.6111 109.679 17.6131C109.679 19.6291 111.037 21.1691 113.053 21.1691ZM118.711 21.1691C119.327 21.1691 119.705 20.9871 119.971 20.7351L119.663 19.9511C119.523 20.1051 119.243 20.2311 118.949 20.2311C118.487 20.2311 118.263 19.8671 118.263 19.3631V15.1631H119.635V14.2391H118.263V12.3911H117.213V14.2391H116.093V15.1631H117.213V19.5871C117.213 20.5951 117.717 21.1691 118.711 21.1691ZM121.636 13.2731C122.028 13.2731 122.35 12.9651 122.35 12.5731C122.35 12.1811 122.028 11.8591 121.636 11.8591C121.258 11.8591 120.936 12.1811 120.936 12.5731C120.936 12.9651 121.258 13.2731 121.636 13.2731ZM122.168 21.0011V14.2391H121.118V21.0011H122.168ZM127.217 21.1691C129.275 21.1691 130.563 19.5731 130.563 17.6131C130.563 15.6531 129.275 14.0711 127.217 14.0711C125.159 14.0711 123.871 15.6531 123.871 17.6131C123.871 19.5731 125.159 21.1691 127.217 21.1691ZM127.217 20.2311C125.775 20.2311 124.963 18.9991 124.963 17.6131C124.963 16.2411 125.775 15.0091 127.217 15.0091C128.659 15.0091 129.457 16.2411 129.457 17.6131C129.457 18.9991 128.659 20.2311 127.217 20.2311ZM137.889 21.0011V16.2551C137.889 14.7851 137.147 14.0711 135.733 14.0711C134.725 14.0711 133.801 14.6591 133.325 15.2191V14.2391H132.275V21.0011H133.325V16.0591C133.717 15.5131 134.501 15.0091 135.327 15.0091C136.237 15.0091 136.839 15.3871 136.839 16.5771V21.0011H137.889Z" fill="#616162"/>
<path d="M6 1.0011H173V-0.998901H6V1.0011ZM178 6.0011V28.0011H180V6.0011H178ZM173 33.0011H6V35.0011H173V33.0011ZM1 28.0011V6.0011H-1V28.0011H1ZM6 33.0011C3.23858 33.0011 1 30.7625 1 28.0011H-1C-1 31.8671 2.13401 35.0011 6 35.0011V33.0011ZM178 28.0011C178 30.7625 175.761 33.0011 173 33.0011V35.0011C176.866 35.0011 180 31.8671 180 28.0011H178ZM173 1.0011C175.761 1.0011 178 3.23968 178 6.0011H180C180 2.13511 176.866 -0.998901 173 -0.998901V1.0011ZM6 -0.998901C2.13401 -0.998901 -1 2.13511 -1 6.0011H1C1 3.23967 3.23858 1.0011 6 1.0011V-0.998901Z" fill="#ECECEC"/>
</svg>
