<svg width="179" height="34" viewBox="0 0 179 34" fill="none" xmlns="http://www.w3.org/2000/svg">
<path d="M0 4.0011C0 1.79196 1.79086 0.00109863 4 0.00109863H175C177.209 0.00109863 179 1.79196 179 4.0011V30.0011C179 32.2102 177.209 34.0011 175 34.0011H4C1.79086 34.0011 0 32.2102 0 30.0011V4.0011Z" fill="#9F9F9F"/>
<path fill-rule="evenodd" clip-rule="evenodd" d="M56.3896 10.8346H50.6103C48.5963 10.8346 47.3336 12.2606 47.3336 14.2786V19.7239C47.3336 21.7419 48.5903 23.1679 50.6103 23.1679H56.389C58.4096 23.1679 59.667 21.7419 59.667 19.7239V14.2786C59.667 12.2606 58.4096 10.8346 56.3896 10.8346Z" stroke="#EFEFEF" stroke-width="1.5" stroke-linecap="round" stroke-linejoin="round"/>
<path d="M51.1266 17.0013L52.7093 18.5833L55.8733 15.4193" stroke="#EFEFEF" stroke-width="1.5" stroke-linecap="round" stroke-linejoin="round"/>
<path d="M75.016 21.1691C76.668 21.1691 77.788 20.3851 78.572 19.3211L77.578 18.7751C77.046 19.5731 76.08 20.1331 75.016 20.1331C72.972 20.1331 71.418 18.5511 71.418 16.3391C71.418 14.1131 72.972 12.5451 75.016 12.5451C76.08 12.5451 77.046 13.1191 77.578 13.9031L78.558 13.3571C77.816 12.3071 76.668 11.5091 75.016 11.5091C72.328 11.5091 70.214 13.4691 70.214 16.3391C70.214 19.2091 72.328 21.1691 75.016 21.1691ZM81.0609 21.0011V16.2131C81.3689 15.6671 82.2509 15.1351 82.8949 15.1351C83.0629 15.1351 83.1889 15.1491 83.3149 15.1771V14.0991C82.3909 14.0991 81.6069 14.6171 81.0609 15.3311V14.2391H80.0109V21.0011H81.0609ZM87.684 21.1691C88.79 21.1691 89.7 20.8051 90.372 20.1331L89.868 19.4471C89.336 19.9931 88.552 20.3011 87.782 20.3011C86.326 20.3011 85.43 19.2371 85.346 17.9631H90.82V17.6971C90.82 15.6671 89.616 14.0711 87.572 14.0711C85.64 14.0711 84.24 15.6531 84.24 17.6131C84.24 19.7271 85.682 21.1691 87.684 21.1691ZM89.784 17.1931H85.346C85.402 16.1571 86.116 14.9391 87.558 14.9391C89.098 14.9391 89.77 16.1851 89.784 17.1931ZM97.7987 21.0011V16.3531C97.7987 14.7151 96.6087 14.0711 95.1807 14.0711C94.0747 14.0711 93.2067 14.4351 92.4787 15.1911L92.9687 15.9191C93.5707 15.2751 94.2287 14.9811 95.0407 14.9811C96.0207 14.9811 96.7487 15.4991 96.7487 16.4091V17.6271C96.2027 16.9971 95.4327 16.7031 94.5087 16.7031C93.3607 16.7031 92.1427 17.4171 92.1427 18.9291C92.1427 20.3991 93.3607 21.1691 94.5087 21.1691C95.4187 21.1691 96.1887 20.8471 96.7487 20.2311V21.0011H97.7987ZM94.8867 20.4131C93.9067 20.4131 93.2207 19.7971 93.2207 18.9431C93.2207 18.0751 93.9067 17.4591 94.8867 17.4591C95.6287 17.4591 96.3427 17.7391 96.7487 18.2991V19.5731C96.3427 20.1331 95.6287 20.4131 94.8867 20.4131ZM101.612 21.1691C102.228 21.1691 102.606 20.9871 102.872 20.7351L102.564 19.9511C102.424 20.1051 102.144 20.2311 101.85 20.2311C101.388 20.2311 101.164 19.8671 101.164 19.3631V15.1631H102.536V14.2391H101.164V12.3911H100.114V14.2391H98.9935V15.1631H100.114V19.5871C100.114 20.5951 100.618 21.1691 101.612 21.1691ZM107.071 21.1691C108.177 21.1691 109.087 20.8051 109.759 20.1331L109.255 19.4471C108.723 19.9931 107.939 20.3011 107.169 20.3011C105.713 20.3011 104.817 19.2371 104.733 17.9631H110.207V17.6971C110.207 15.6671 109.003 14.0711 106.959 14.0711C105.027 14.0711 103.627 15.6531 103.627 17.6131C103.627 19.7271 105.069 21.1691 107.071 21.1691ZM109.171 17.1931H104.733C104.789 16.1571 105.503 14.9391 106.945 14.9391C108.485 14.9391 109.157 16.1851 109.171 17.1931ZM119.983 21.1691C121.635 21.1691 122.755 20.3851 123.539 19.3211L122.545 18.7751C122.013 19.5731 121.047 20.1331 119.983 20.1331C117.939 20.1331 116.385 18.5511 116.385 16.3391C116.385 14.1131 117.939 12.5451 119.983 12.5451C121.047 12.5451 122.013 13.1191 122.545 13.9031L123.525 13.3571C122.783 12.3071 121.635 11.5091 119.983 11.5091C117.295 11.5091 115.181 13.4691 115.181 16.3391C115.181 19.2091 117.295 21.1691 119.983 21.1691ZM129.22 21.0011L132.986 11.6631H131.656L128.506 19.7271L125.356 11.6631H124.026L127.778 21.0011H129.22Z" fill="#EFEFEF"/>
</svg>
