<svg width="22" height="22" viewBox="0 0 22 22" fill="none" xmlns="http://www.w3.org/2000/svg">
<path d="M10.5346 2.55658H7.1072C4.28845 2.55658 2.52112 4.55217 2.52112 7.37733V14.9985C2.52112 17.8237 4.2802 19.8193 7.1072 19.8193H15.1959C18.0238 19.8193 19.7829 17.8237 19.7829 14.9985V11.3062" stroke="#616162" stroke-width="1.5" stroke-linecap="round" stroke-linejoin="round"/>
<path fill-rule="evenodd" clip-rule="evenodd" d="M8.09214 10.0108L14.9424 3.16058C15.7958 2.30808 17.1791 2.30808 18.0325 3.16058L19.1481 4.27616C20.0015 5.12958 20.0015 6.51374 19.1481 7.36624L12.2648 14.2495C11.8917 14.6226 11.3857 14.8325 10.8577 14.8325H7.42389L7.51006 11.3675C7.52289 10.8578 7.73097 10.372 8.09214 10.0108Z" stroke="#616162" stroke-width="1.5" stroke-linecap="round" stroke-linejoin="round"/>
<path d="M13.9014 4.21896L18.0869 8.40446" stroke="#616162" stroke-width="1.5" stroke-linecap="round" stroke-linejoin="round"/>
</svg>
