<svg width="11" height="10" viewBox="0 0 11 10" fill="none" xmlns="http://www.w3.org/2000/svg">
<path d="M10.0435 2.25946H8.52739L7.65217 1.35568H4.78261V2.25946H7.2313L8.10652 3.16325H10.0435V8.58596H2.3913V4.51893H1.43478V8.58596C1.43478 9.08304 1.86522 9.48975 2.3913 9.48975H10.0435C10.5696 9.48975 11 9.08304 11 8.58596V3.16325C11 2.66617 10.5696 2.25946 10.0435 2.25946ZM3.82609 5.8746C3.82609 7.12183 4.89739 8.13407 6.21739 8.13407C7.53739 8.13407 8.6087 7.12183 8.6087 5.8746C8.6087 4.62738 7.53739 3.61514 6.21739 3.61514C4.89739 3.61514 3.82609 4.62738 3.82609 5.8746ZM6.21739 4.51893C7.00652 4.51893 7.65217 5.12898 7.65217 5.8746C7.65217 6.62023 7.00652 7.23028 6.21739 7.23028C5.42826 7.23028 4.78261 6.62023 4.78261 5.8746C4.78261 5.12898 5.42826 4.51893 6.21739 4.51893ZM2.3913 2.25946H3.82609V1.35568H2.3913V0H1.43478V1.35568H0V2.25946H1.43478V3.61514H2.3913V2.25946Z" fill="#4C494F"/>
</svg>
