<svg width="43" height="53" viewBox="0 0 43 53" fill="none" xmlns="http://www.w3.org/2000/svg">
<path d="M21.5 23.6616C23.9299 23.6616 26.3052 22.9814 28.3256 21.7069C30.346 20.4324 31.9206 18.621 32.8505 16.5016C33.7804 14.3823 34.0237 12.0502 33.5496 9.80028C33.0756 7.55038 31.9055 5.48371 30.1873 3.86162C28.4691 2.23953 26.28 1.13488 23.8968 0.687346C21.5136 0.239813 19.0434 0.469503 16.7985 1.34737C14.5535 2.22524 12.6348 3.71186 11.2848 5.61923C9.93483 7.5266 9.21429 9.76907 9.21429 12.063C9.21429 15.1392 10.5087 18.0893 12.8127 20.2645C15.1167 22.4396 18.2416 23.6616 21.5 23.6616ZM21.5 6.26376C22.7149 6.26376 23.9026 6.60389 24.9128 7.24112C25.923 7.87835 26.7103 8.78408 27.1753 9.84376C27.6402 10.9034 27.7618 12.0695 27.5248 13.1944C27.2878 14.3194 26.7027 15.3527 25.8437 16.1638C24.9846 16.9748 23.89 17.5271 22.6984 17.7509C21.5068 17.9747 20.2717 17.8598 19.1492 17.4209C18.0268 16.982 17.0674 16.2386 16.3924 15.285C15.7174 14.3313 15.3571 13.21 15.3571 12.063C15.3571 10.525 16.0043 9.04991 17.1563 7.96233C18.3084 6.87476 19.8708 6.26376 21.5 6.26376ZM21.5 29.4609C15.7978 29.4609 10.3292 31.5994 6.2972 35.4059C2.26517 39.2124 0 44.3752 0 49.7584C0 50.5274 0.323597 51.2649 0.899601 51.8087C1.47561 52.3525 2.25683 52.658 3.07143 52.658C3.88602 52.658 4.66725 52.3525 5.24326 51.8087C5.81926 51.2649 6.14286 50.5274 6.14286 49.7584C6.14286 45.9132 7.76084 42.2255 10.6409 39.5066C13.5209 36.7877 17.427 35.2602 21.5 35.2602C25.573 35.2602 29.4791 36.7877 32.3591 39.5066C35.2392 42.2255 36.8571 45.9132 36.8571 49.7584C36.8571 50.5274 37.1807 51.2649 37.7567 51.8087C38.3327 52.3525 39.114 52.658 39.9286 52.658C40.7432 52.658 41.5244 52.3525 42.1004 51.8087C42.6764 51.2649 43 50.5274 43 49.7584C43 44.3752 40.7348 39.2124 36.7028 35.4059C32.6708 31.5994 27.2022 29.4609 21.5 29.4609Z" fill="#A9AAAD"/>
</svg>
