<svg width="12" height="11" viewBox="0 0 12 11" fill="none" xmlns="http://www.w3.org/2000/svg">
<path d="M10.9565 2.47172H9.98983C9.55065 2.47172 9.1303 2.29329 8.82522 1.97737C8.52013 1.66145 8.09979 1.48303 7.6606 1.48303H5.71173C5.43872 1.48303 5.21739 1.70435 5.21739 1.97737C5.21739 2.25039 5.43872 2.47172 5.71173 2.47172H7.20147C7.64066 2.47172 8.061 2.65014 8.36609 2.96606L8.40608 3.00747C8.68561 3.29693 9.07074 3.4604 9.47313 3.4604C10.2924 3.4604 10.9565 4.12454 10.9565 4.94379V6.42646C10.9565 8.06457 9.62857 9.39252 7.99046 9.39252H4.83324C3.60466 9.39252 2.6087 8.39656 2.6087 7.16798V5.46517C2.6087 5.17702 2.3751 4.94343 2.08696 4.94343C1.79881 4.94343 1.56522 5.17702 1.56522 5.46517V9.39252C1.56522 9.9363 2.03478 10.3812 2.6087 10.3812H10.9565C11.5304 10.3812 12 9.9363 12 9.39252V3.4604C12 2.91663 11.5304 2.47172 10.9565 2.47172ZM4.17391 6.42646C4.17391 7.79085 5.34261 8.89818 6.78261 8.89818C8.22261 8.89818 9.3913 7.79085 9.3913 6.42646C9.3913 5.06207 8.22261 3.95475 6.78261 3.95475C5.34261 3.95475 4.17391 5.06207 4.17391 6.42646ZM6.78261 4.94343C7.64348 4.94343 8.34783 5.6108 8.34783 6.42646C8.34783 7.24213 7.64348 7.90949 6.78261 7.90949C5.92174 7.90949 5.21739 7.24213 5.21739 6.42646C5.21739 5.6108 5.92174 4.94343 6.78261 4.94343ZM2.6087 3.21323C2.6087 2.8037 2.94068 2.47172 3.35021 2.47172H3.67957C3.95259 2.47172 4.17391 2.25039 4.17391 1.97737C4.17391 1.70435 3.95259 1.48303 3.67957 1.48303H3.35021C2.94068 1.48303 2.6087 1.15104 2.6087 0.741515V0.521739C2.6087 0.233591 2.3751 0 2.08696 0C1.79881 0 1.56522 0.233591 1.56522 0.521739V0.741515C1.56522 1.15104 1.23323 1.48303 0.823703 1.48303H0.494343C0.221325 1.48303 0 1.70435 0 1.97737C0 2.25039 0.221325 2.47172 0.494343 2.47172H0.823702C1.23323 2.47172 1.56522 2.8037 1.56522 3.21323V3.43301C1.56522 3.72115 1.79881 3.95475 2.08696 3.95475C2.3751 3.95475 2.6087 3.72116 2.6087 3.43301V3.21323Z" fill="white"/>
</svg>
