<svg width="43" height="53" viewBox="0 0 43 53" fill="none" xmlns="http://www.w3.org/2000/svg">
<path d="M21.4404 23.1971C23.8636 23.1971 26.2323 22.5169 28.2471 21.2424C30.2619 19.9679 31.8322 18.1565 32.7595 16.0371C33.6868 13.9178 33.9294 11.5857 33.4567 9.33579C32.984 7.08589 31.8171 5.01923 30.1037 3.39714C28.3903 1.77505 26.2072 0.670401 23.8306 0.222868C21.454 -0.224665 18.9906 0.00502543 16.7519 0.882892C14.5132 1.76076 12.5998 3.24737 11.2535 5.15475C9.90731 7.06212 9.18876 9.30458 9.18876 11.5986C9.18876 14.6747 10.4796 17.6248 12.7772 19.8C15.0748 21.9751 18.1911 23.1971 21.4404 23.1971ZM21.4404 5.79928C22.652 5.79928 23.8364 6.1394 24.8438 6.77663C25.8512 7.41387 26.6363 8.31959 27.1 9.37927C27.5636 10.4389 27.6849 11.605 27.4486 12.7299C27.2122 13.8549 26.6288 14.8882 25.7721 15.6993C24.9153 16.5103 23.8238 17.0626 22.6355 17.2864C21.4472 17.5102 20.2155 17.3953 19.0962 16.9564C17.9768 16.5175 17.0201 15.7741 16.347 14.8205C15.6739 13.8668 15.3146 12.7455 15.3146 11.5986C15.3146 10.0605 15.96 8.58542 17.1088 7.49785C18.2576 6.41027 19.8158 5.79928 21.4404 5.79928ZM21.4404 28.9964C15.7541 28.9964 10.3006 31.1349 6.27976 34.9414C2.2589 38.7479 0 43.9106 0 49.2938C0 50.0629 0.3227 50.8004 0.897109 51.3442C1.47152 51.888 2.25058 52.1935 3.06292 52.1935C3.87526 52.1935 4.65432 51.888 5.22873 51.3442C5.80314 50.8004 6.12584 50.0629 6.12584 49.2938C6.12584 45.4487 7.73934 41.761 10.6114 39.0421C13.4834 36.3231 17.3788 34.7957 21.4404 34.7957C25.5021 34.7957 29.3975 36.3231 32.2695 39.0421C35.1415 41.761 36.755 45.4487 36.755 49.2938C36.755 50.0629 37.0777 50.8004 37.6521 51.3442C38.2266 51.888 39.0056 52.1935 39.818 52.1935C40.6303 52.1935 41.4094 51.888 41.9838 51.3442C42.5582 50.8004 42.8809 50.0629 42.8809 49.2938C42.8809 43.9106 40.622 38.7479 36.6011 34.9414C32.5803 31.1349 27.1268 28.9964 21.4404 28.9964V28.9964Z" fill="white"/>
</svg>
