<svg width="162" height="178" viewBox="0 0 162 178" fill="none" xmlns="http://www.w3.org/2000/svg">
<g filter="url(#filter0_bd_805_5193)">
<path d="M24 73C24 51.4609 41.4609 34 63 34C84.5391 34 102 51.4609 102 73C102 94.5391 84.5391 112 63 112C41.4609 112 24 94.5391 24 73Z" fill="url(#paint0_linear_805_5193)"/>
<path d="M24 73C24 51.4609 41.4609 34 63 34C84.5391 34 102 51.4609 102 73C102 94.5391 84.5391 112 63 112C41.4609 112 24 94.5391 24 73Z" fill="#8C0DF0"/>
</g>
<g filter="url(#filter1_bd_805_5193)">
<path fill-rule="evenodd" clip-rule="evenodd" d="M26.1667 73C26.1667 93.3425 42.6575 109.833 63 109.833C83.3425 109.833 99.8333 93.3425 99.8333 73C99.8333 52.6575 83.3425 36.1667 63 36.1667C42.6575 36.1667 26.1667 52.6575 26.1667 73ZM63 34C41.4609 34 24 51.4609 24 73C24 94.5391 41.4609 112 63 112C84.5391 112 102 94.5391 102 73C102 51.4609 84.5391 34 63 34Z" fill="url(#paint1_linear_805_5193)" fill-opacity="0.2" shape-rendering="crispEdges"/>
</g>
<path d="M63 58C54.72 58 48 64.72 48 73C48 81.28 54.72 88 63 88C71.28 88 78 81.28 78 73C78 64.72 71.28 58 63 58ZM63 62.5C65.49 62.5 67.5 64.51 67.5 67C67.5 69.49 65.49 71.5 63 71.5C60.51 71.5 58.5 69.49 58.5 67C58.5 64.51 60.51 62.5 63 62.5ZM63 83.8C61.2178 83.8 59.4633 83.359 57.8929 82.5162C56.3226 81.6734 54.9852 80.4552 54 78.97C54.045 75.985 60 74.35 63 74.35C65.985 74.35 71.955 75.985 72 78.97C71.0148 80.4552 69.6774 81.6734 68.1071 82.5162C66.5367 83.359 64.7822 83.8 63 83.8Z" fill="white"/>
<defs>
<filter id="filter0_bd_805_5193" x="-16" y="0" width="178" height="178" filterUnits="userSpaceOnUse" color-interpolation-filters="sRGB">
<feFlood flood-opacity="0" result="BackgroundImageFix"/>
<feGaussianBlur in="BackgroundImage" stdDeviation="12"/>
<feComposite in2="SourceAlpha" operator="in" result="effect1_backgroundBlur_805_5193"/>
<feColorMatrix in="SourceAlpha" type="matrix" values="0 0 0 0 0 0 0 0 0 0 0 0 0 0 0 0 0 0 127 0" result="hardAlpha"/>
<feOffset dx="10" dy="16"/>
<feGaussianBlur stdDeviation="25"/>
<feComposite in2="hardAlpha" operator="out"/>
<feColorMatrix type="matrix" values="0 0 0 0 0 0 0 0 0 0.188235 0 0 0 0 0.286275 0 0 0 0.08 0"/>
<feBlend mode="normal" in2="effect1_backgroundBlur_805_5193" result="effect2_dropShadow_805_5193"/>
<feBlend mode="normal" in="SourceGraphic" in2="effect2_dropShadow_805_5193" result="shape"/>
</filter>
<filter id="filter1_bd_805_5193" x="-16" y="0" width="178" height="178" filterUnits="userSpaceOnUse" color-interpolation-filters="sRGB">
<feFlood flood-opacity="0" result="BackgroundImageFix"/>
<feGaussianBlur in="BackgroundImage" stdDeviation="12"/>
<feComposite in2="SourceAlpha" operator="in" result="effect1_backgroundBlur_805_5193"/>
<feColorMatrix in="SourceAlpha" type="matrix" values="0 0 0 0 0 0 0 0 0 0 0 0 0 0 0 0 0 0 127 0" result="hardAlpha"/>
<feOffset dx="10" dy="16"/>
<feGaussianBlur stdDeviation="25"/>
<feComposite in2="hardAlpha" operator="out"/>
<feColorMatrix type="matrix" values="0 0 0 0 0 0 0 0 0 0.188235 0 0 0 0 0.286275 0 0 0 0.08 0"/>
<feBlend mode="normal" in2="effect1_backgroundBlur_805_5193" result="effect2_dropShadow_805_5193"/>
<feBlend mode="normal" in="SourceGraphic" in2="effect2_dropShadow_805_5193" result="shape"/>
</filter>
<linearGradient id="paint0_linear_805_5193" x1="22.7944" y1="33.1656" x2="113.369" y2="86.7663" gradientUnits="userSpaceOnUse">
<stop stop-color="white" stop-opacity="0.6"/>
<stop offset="1" stop-color="white" stop-opacity="0.2"/>
</linearGradient>
<linearGradient id="paint1_linear_805_5193" x1="21.83" y1="31.4968" x2="113.165" y2="82.6294" gradientUnits="userSpaceOnUse">
<stop stop-color="white"/>
<stop offset="1" stop-color="white" stop-opacity="0.2"/>
</linearGradient>
</defs>
</svg>
