<svg width="30" height="30" viewBox="0 0 30 30" fill="none" xmlns="http://www.w3.org/2000/svg">
    <path d="M12.4956 13.7761C12.2625 13.9427 11.9628 14.0426 11.5964 14.0426H9.53156V11.8778H11.4632C11.663 11.8778 11.8296 11.8778 11.9961 11.9111C12.1626 11.9444 12.2958 12.011 12.429 12.0776C12.5622 12.1775 12.6622 12.2775 12.7288 12.4107C12.7954 12.5439 12.8287 12.7437 12.8287 12.9435C12.8287 13.3099 12.7288 13.6096 12.4956 13.7761Z"
          fill="#2F2F2F"/>
    <path d="M12.2625 17.9059C12.096 17.9392 11.8962 17.9725 11.6963 17.9725H9.53156V15.4081H11.7296C12.1626 15.4081 12.5289 15.508 12.7954 15.7078C13.0618 15.9409 13.195 16.274 13.195 16.7402C13.195 16.9734 13.1284 17.1732 13.0618 17.3397C12.9619 17.5062 12.862 17.6061 12.7288 17.7061C12.5956 17.806 12.429 17.8726 12.2625 17.9059Z"
          fill="#2F2F2F"/>
    <path d="M19.1898 14.0759C19.6228 14.0759 19.9891 14.2091 20.2222 14.4422C20.4554 14.6754 20.6219 15.0084 20.6885 15.508H17.6911C17.6911 15.3976 17.714 15.2873 17.7407 15.158C17.7463 15.1312 17.752 15.1036 17.7577 15.075C17.791 14.9085 17.8576 14.742 17.9909 14.6088C18.1241 14.4755 18.2573 14.3423 18.4571 14.2424C18.6569 14.1425 18.8901 14.0759 19.1898 14.0759Z"
          fill="#2F2F2F"/>
    <path fill-rule="evenodd" clip-rule="evenodd"
          d="M4.6875 0C2.09867 0 0 2.09867 0 4.6875V25.3125C0 27.9013 2.09867 30 4.6875 30H25.3125C27.9013 30 30 27.9013 30 25.3125V4.6875C30 2.09867 27.9013 0 25.3125 0H4.6875ZM13.0618 10.4457C12.6955 10.3458 12.2958 10.3125 11.8629 10.3125H7.5V19.5045H11.9628C12.3624 19.5045 12.7621 19.4379 13.1617 19.338C13.5614 19.2381 13.9277 19.0715 14.2275 18.8717C14.5272 18.6719 14.7936 18.3721 14.9602 18.0391C15.1267 17.7061 15.2266 17.3064 15.2266 16.8401C15.2266 16.274 15.0601 15.7744 14.7936 15.3748C14.5272 14.9751 14.0943 14.6754 13.5281 14.5088C13.9277 14.309 14.2608 14.0426 14.4606 13.7428C14.6937 13.4431 14.7936 13.0435 14.7936 12.5772C14.7936 12.1775 14.727 11.8112 14.5938 11.5115C14.4606 11.2117 14.2608 10.9786 13.9943 10.8121C13.7279 10.6455 13.4282 10.5123 13.0618 10.4457ZM19.323 18.3388C18.7902 18.3388 18.3905 18.2056 18.1241 17.9392C17.8576 17.6728 17.6578 17.1732 17.6578 16.6403H22.4869C22.5202 16.1074 22.4869 15.6412 22.4203 15.1749C22.2871 14.7087 22.0873 14.2757 21.8208 13.9094C21.5544 13.5097 21.2214 13.2433 20.7884 13.0101C20.3555 12.777 19.8559 12.6771 19.2897 12.6771C18.7569 12.6771 18.3239 12.777 17.8909 12.9435C17.4913 13.1101 17.1249 13.3765 16.8252 13.6762C16.5255 14.0093 16.2923 14.3756 16.1258 14.8086C15.9593 15.2415 15.8927 15.7078 15.8927 16.2074C15.8927 16.7402 15.9593 17.2065 16.1258 17.6394C16.259 18.0724 16.4922 18.4387 16.7919 18.7385C17.0916 19.0715 17.4247 19.3047 17.8576 19.4712C18.2906 19.6377 18.7569 19.7376 19.2897 19.7376C20.0557 19.7376 20.6885 19.5378 21.2214 19.2047C21.7542 18.8384 22.1539 18.2722 22.4203 17.4729H20.7884C20.7218 17.6728 20.5553 17.8726 20.2889 18.0724C20.0224 18.2389 19.6894 18.3388 19.323 18.3388ZM21.0215 10.9453H17.2915V11.8445H21.0215V10.9453Z"
          fill="#2F2F2F"/>
</svg>
