<svg width="11" height="9" viewBox="0 0 11 9" fill="none" xmlns="http://www.w3.org/2000/svg">
<path d="M1.91308 4.03528H1.91326C1.99256 4.03537 2.07081 4.05343 2.14213 4.0881C2.21341 4.12274 2.27591 4.17307 2.32497 4.23532L1.91308 4.03528ZM1.91308 4.03528H1.09394C0.890308 4.03528 0.776602 4.26987 0.902321 4.42932L0.902371 4.42939L4.11214 8.49579L4.11218 8.49585C4.32247 8.762 4.72568 8.76126 4.93667 8.4963L4.93708 8.49578L10.6597 1.24411C10.6598 1.2439 10.66 1.2437 10.6602 1.2435C10.7884 1.08307 10.6699 0.850122 10.4689 0.850122H9.6498C9.48941 0.850122 9.33668 0.923622 9.2376 1.05056C9.23751 1.05067 9.23742 1.05078 9.23734 1.05089L4.52403 7.02169M1.91308 4.03528L4.52403 7.02169M4.52403 7.02169L2.32506 4.23543L4.52403 7.02169Z" fill="white" stroke="white" stroke-width="0.3"/>
</svg>
