<svg width="179" height="34" viewBox="0 0 179 34" fill="none" xmlns="http://www.w3.org/2000/svg">
    <path d="M0 4C0 1.79086 1.79086 0 4 0H175C177.209 0 179 1.79086 179 4V30C179 32.2091 177.209 34 175 34H4C1.79086 34 0 32.2091 0 30V4Z"
          fill="#8C0DF0"/>
    <path fill-rule="evenodd" clip-rule="evenodd"
          d="M56.3896 10.8335H50.6103C48.5963 10.8335 47.3336 12.2595 47.3336 14.2775V19.7228C47.3336 21.7408 48.5903 23.1668 50.6103 23.1668H56.389C58.4096 23.1668 59.667 21.7408 59.667 19.7228V14.2775C59.667 12.2595 58.4096 10.8335 56.3896 10.8335Z"
          stroke="white" stroke-width="1.5" stroke-linecap="round" stroke-linejoin="round"/>
    <path d="M51.1266 17.0002L52.7093 18.5822L55.8733 15.4182" stroke="white" stroke-width="1.5" stroke-linecap="round"
          stroke-linejoin="round"/>
    <path d="M75.016 21.168C76.668 21.168 77.788 20.384 78.572 19.32L77.578 18.774C77.046 19.572 76.08 20.132 75.016 20.132C72.972 20.132 71.418 18.55 71.418 16.338C71.418 14.112 72.972 12.544 75.016 12.544C76.08 12.544 77.046 13.118 77.578 13.902L78.558 13.356C77.816 12.306 76.668 11.508 75.016 11.508C72.328 11.508 70.214 13.468 70.214 16.338C70.214 19.208 72.328 21.168 75.016 21.168ZM81.0609 21V16.212C81.3689 15.666 82.2509 15.134 82.8949 15.134C83.0629 15.134 83.1889 15.148 83.3149 15.176V14.098C82.3909 14.098 81.6069 14.616 81.0609 15.33V14.238H80.0109V21H81.0609ZM87.684 21.168C88.79 21.168 89.7 20.804 90.372 20.132L89.868 19.446C89.336 19.992 88.552 20.3 87.782 20.3C86.326 20.3 85.43 19.236 85.346 17.962H90.82V17.696C90.82 15.666 89.616 14.07 87.572 14.07C85.64 14.07 84.24 15.652 84.24 17.612C84.24 19.726 85.682 21.168 87.684 21.168ZM89.784 17.192H85.346C85.402 16.156 86.116 14.938 87.558 14.938C89.098 14.938 89.77 16.184 89.784 17.192ZM97.7987 21V16.352C97.7987 14.714 96.6087 14.07 95.1807 14.07C94.0747 14.07 93.2067 14.434 92.4787 15.19L92.9687 15.918C93.5707 15.274 94.2287 14.98 95.0407 14.98C96.0207 14.98 96.7487 15.498 96.7487 16.408V17.626C96.2027 16.996 95.4327 16.702 94.5087 16.702C93.3607 16.702 92.1427 17.416 92.1427 18.928C92.1427 20.398 93.3607 21.168 94.5087 21.168C95.4187 21.168 96.1887 20.846 96.7487 20.23V21H97.7987ZM94.8867 20.412C93.9067 20.412 93.2207 19.796 93.2207 18.942C93.2207 18.074 93.9067 17.458 94.8867 17.458C95.6287 17.458 96.3427 17.738 96.7487 18.298V19.572C96.3427 20.132 95.6287 20.412 94.8867 20.412ZM101.612 21.168C102.228 21.168 102.606 20.986 102.872 20.734L102.564 19.95C102.424 20.104 102.144 20.23 101.85 20.23C101.388 20.23 101.164 19.866 101.164 19.362V15.162H102.536V14.238H101.164V12.39H100.114V14.238H98.9935V15.162H100.114V19.586C100.114 20.594 100.618 21.168 101.612 21.168ZM107.071 21.168C108.177 21.168 109.087 20.804 109.759 20.132L109.255 19.446C108.723 19.992 107.939 20.3 107.169 20.3C105.713 20.3 104.817 19.236 104.733 17.962H110.207V17.696C110.207 15.666 109.003 14.07 106.959 14.07C105.027 14.07 103.627 15.652 103.627 17.612C103.627 19.726 105.069 21.168 107.071 21.168ZM109.171 17.192H104.733C104.789 16.156 105.503 14.938 106.945 14.938C108.485 14.938 109.157 16.184 109.171 17.192ZM119.983 21.168C121.635 21.168 122.755 20.384 123.539 19.32L122.545 18.774C122.013 19.572 121.047 20.132 119.983 20.132C117.939 20.132 116.385 18.55 116.385 16.338C116.385 14.112 117.939 12.544 119.983 12.544C121.047 12.544 122.013 13.118 122.545 13.902L123.525 13.356C122.783 12.306 121.635 11.508 119.983 11.508C117.295 11.508 115.181 13.468 115.181 16.338C115.181 19.208 117.295 21.168 119.983 21.168ZM129.22 21L132.986 11.662H131.656L128.506 19.726L125.356 11.662H124.026L127.778 21H129.22Z"
          fill="white"/>
</svg>
