<svg width="17" height="16" viewBox="0 0 17 16" fill="none" xmlns="http://www.w3.org/2000/svg">
    <path d="M13.3833 6.31213C13.3833 6.31213 13.0213 10.8021 12.8113 12.6935C12.7113 13.5968 12.1533 14.1261 11.2393 14.1428C9.49994 14.1741 7.75861 14.1761 6.01994 14.1395C5.14061 14.1215 4.59194 13.5855 4.49394 12.6981C4.28261 10.7901 3.92261 6.31213 3.92261 6.31213"
          stroke="#9F9F9F" stroke-width="1.5" stroke-linecap="round" stroke-linejoin="round"/>
    <path d="M14.3055 4.1598H3.00012" stroke="#9F9F9F" stroke-width="1.5" stroke-linecap="round"
          stroke-linejoin="round"/>
    <path d="M12.1271 4.1598C11.6037 4.1598 11.1531 3.7898 11.0504 3.27713L10.8884 2.46647C10.7884 2.09247 10.4497 1.8338 10.0637 1.8338H7.24174C6.85574 1.8338 6.51707 2.09247 6.41707 2.46647L6.25507 3.27713C6.15241 3.7898 5.70174 4.1598 5.17841 4.1598"
          stroke="#9F9F9F" stroke-width="1.5" stroke-linecap="round" stroke-linejoin="round"/>
</svg>
