<svg width="94" height="34" viewBox="0 0 94 34" fill="none" xmlns="http://www.w3.org/2000/svg">
    <rect x="0.5" y="0.500092" width="93" height="33" rx="5.5" fill="white"/>
    <path d="M27.3833 15.3122C27.3833 15.3122 27.0213 19.8022 26.8113 21.6936C26.7113 22.5969 26.1533 23.1262 25.2393 23.1429C23.4999 23.1742 21.7586 23.1762 20.0199 23.1396C19.1406 23.1216 18.5919 22.5856 18.4939 21.6982C18.2826 19.7902 17.9226 15.3122 17.9226 15.3122"
          stroke="#616162" stroke-width="1.5" stroke-linecap="round" stroke-linejoin="round"/>
    <path d="M28.3055 13.1599H17.0001" stroke="#616162" stroke-width="1.5" stroke-linecap="round"
          stroke-linejoin="round"/>
    <path d="M26.1271 13.1599C25.6037 13.1599 25.1531 12.7899 25.0504 12.2772L24.8884 11.4666C24.7884 11.0926 24.4497 10.8339 24.0637 10.8339H21.2417C20.8557 10.8339 20.5171 11.0926 20.4171 11.4666L20.2551 12.2772C20.1524 12.7899 19.7017 13.1599 19.1784 13.1599"
          stroke="#616162" stroke-width="1.5" stroke-linecap="round" stroke-linejoin="round"/>
    <path d="M42.784 21.0001C45.682 21.0001 47.572 18.9981 47.572 16.3381C47.572 13.6921 45.682 11.6621 42.784 11.6621H39.592V21.0001H42.784ZM42.784 19.9641H40.754V12.6981H42.784C45.094 12.6981 46.368 14.3221 46.368 16.3381C46.368 18.3401 45.052 19.9641 42.784 19.9641ZM52.4047 21.1681C53.5107 21.1681 54.4207 20.8041 55.0927 20.1321L54.5887 19.4461C54.0567 19.9921 53.2727 20.3001 52.5027 20.3001C51.0467 20.3001 50.1507 19.2361 50.0667 17.9621H55.5407V17.6961C55.5407 15.6661 54.3367 14.0701 52.2927 14.0701C50.3607 14.0701 48.9607 15.6521 48.9607 17.6121C48.9607 19.7261 50.4027 21.1681 52.4047 21.1681ZM54.5047 17.1921H50.0667C50.1227 16.1561 50.8367 14.9381 52.2787 14.9381C53.8187 14.9381 54.4907 16.1841 54.5047 17.1921ZM58.2914 21.0001V11.6621H57.2414V21.0001H58.2914ZM63.4379 21.1681C64.5439 21.1681 65.4539 20.8041 66.1259 20.1321L65.6219 19.4461C65.0899 19.9921 64.3059 20.3001 63.5359 20.3001C62.0799 20.3001 61.1839 19.2361 61.0999 17.9621H66.5739V17.6961C66.5739 15.6661 65.3699 14.0701 63.3259 14.0701C61.3939 14.0701 59.9939 15.6521 59.9939 17.6121C59.9939 19.7261 61.4359 21.1681 63.4379 21.1681ZM65.5379 17.1921H61.0999C61.1559 16.1561 61.8699 14.9381 63.3119 14.9381C64.8519 14.9381 65.5239 16.1841 65.5379 17.1921ZM69.9826 21.1681C70.5986 21.1681 70.9766 20.9861 71.2426 20.7341L70.9346 19.9501C70.7946 20.1041 70.5146 20.2301 70.2206 20.2301C69.7586 20.2301 69.5346 19.8661 69.5346 19.3621V15.1621H70.9066V14.2381H69.5346V12.3901H68.4846V14.2381H67.3646V15.1621H68.4846V19.5861C68.4846 20.5941 68.9886 21.1681 69.9826 21.1681ZM75.4418 21.1681C76.5478 21.1681 77.4578 20.8041 78.1298 20.1321L77.6258 19.4461C77.0938 19.9921 76.3098 20.3001 75.5398 20.3001C74.0838 20.3001 73.1878 19.2361 73.1038 17.9621H78.5778V17.6961C78.5778 15.6661 77.3738 14.0701 75.3298 14.0701C73.3978 14.0701 71.9978 15.6521 71.9978 17.6121C71.9978 19.7261 73.4398 21.1681 75.4418 21.1681ZM77.5418 17.1921H73.1038C73.1598 16.1561 73.8738 14.9381 75.3158 14.9381C76.8558 14.9381 77.5278 16.1841 77.5418 17.1921Z"
          fill="#616162"/>
    <rect x="0.5" y="0.500092" width="93" height="33" rx="5.5" stroke="#ECECEC"/>
</svg>
