<svg width="30" height="30" viewBox="0 0 30 30" fill="none" xmlns="http://www.w3.org/2000/svg">
    <path d="M21.405 14.94C21.375 13.425 20.85 12.045 19.95 10.95C19.815 11.13 18.735 12.525 16.395 13.47C16.545 13.77 16.68 14.085 16.815 14.4C16.8375 14.4526 16.8601 14.509 16.8826 14.5654C16.9051 14.6215 16.9276 14.6776 16.95 14.73C19.08 14.475 21.195 14.895 21.405 14.94Z"
          fill="#2F2F2F"/>
    <path d="M19.245 10.215C18.12 9.225 16.62 8.61 15 8.61C14.475 8.61 13.98 8.67 13.5 8.775C13.52 8.80413 13.5548 8.85291 13.6024 8.91962C13.9472 9.40257 14.9624 10.8248 15.885 12.525C18.165 11.67 19.125 10.38 19.245 10.215Z"
          fill="#2F2F2F"/>
    <path d="M14.64 12.915C13.575 11.025 12.435 9.435 12.27 9.21C10.485 10.05 9.15001 11.7 8.71499 13.695L8.73053 13.695C9.08501 13.6953 11.6882 13.6972 14.64 12.915Z"
          fill="#2F2F2F"/>
    <path d="M8.595 14.82V15.015C8.595 16.65 9.21 18.15 10.245 19.29L10.2554 19.2733C10.4629 18.9391 12.2133 16.1196 15.45 15.075C15.4899 15.0617 15.5297 15.0514 15.5683 15.0414C15.6168 15.0288 15.6632 15.0167 15.705 15C15.54 14.625 15.36 14.265 15.18 13.905C11.985 14.865 8.86499 14.835 8.595 14.82Z"
          fill="#2F2F2F"/>
    <path d="M11.07 20.055C12.15 20.895 13.515 21.405 15 21.405C15.885 21.405 16.74 21.225 17.505 20.895C17.415 20.325 17.04 18.375 16.14 16.035C16.125 16.035 16.11 16.035 16.095 16.05C12.48 17.31 11.19 19.815 11.07 20.055Z"
          fill="#2F2F2F"/>
    <path d="M17.325 15.75C18.165 18.045 18.51 19.92 18.57 20.31C20.01 19.35 21.03 17.805 21.315 16.02C21.3047 16.0173 21.2913 16.0136 21.2748 16.009C20.9293 15.9138 19.2433 15.4494 17.325 15.75Z"
          fill="#2F2F2F"/>
    <path fill-rule="evenodd" clip-rule="evenodd"
          d="M4.6875 0H25.3125C27.9013 0 30 2.09867 30 4.6875V25.3125C30 27.9013 27.9013 30 25.3125 30H4.6875C2.09867 30 0 27.9013 0 25.3125V4.6875C0 2.09867 2.09867 0 4.6875 0ZM7.5 15C7.5 10.86 10.86 7.5 15 7.5C19.125 7.5 22.5 10.86 22.5 15C22.5 19.14 19.125 22.5 15 22.5C10.86 22.5 7.5 19.14 7.5 15Z"
          fill="#2F2F2F"/>
</svg>
