<svg width="94" height="34" viewBox="0 0 94 34" fill="none" xmlns="http://www.w3.org/2000/svg">
    <path d="M0 6C0 2.68629 2.68629 0 6 0H88C91.3137 0 94 2.68629 94 6V28C94 31.3137 91.3137 34 88 34H6C2.68629 34 0 31.3137 0 28V6Z"
          fill="white"/>
    <path d="M32.1649 22.6286H37" stroke="#616162" stroke-width="1.5" stroke-linecap="round" stroke-linejoin="round"/>
    <path fill-rule="evenodd" clip-rule="evenodd"
          d="M31.52 11.5299C32.0371 10.9119 32.9667 10.8212 33.5975 11.3278C33.6324 11.3553 34.753 12.2259 34.753 12.2259C35.446 12.6448 35.6613 13.5354 35.2329 14.2151C35.2102 14.2515 28.8746 22.1763 28.8746 22.1763C28.6639 22.4393 28.3439 22.5945 28.0019 22.5982L25.5757 22.6287L25.029 20.3149C24.9524 19.9895 25.029 19.6478 25.2398 19.3849L31.52 11.5299Z"
          stroke="#616162" stroke-width="1.5" stroke-linecap="round" stroke-linejoin="round"/>
    <path d="M30.3472 13.0006L33.9821 15.792" stroke="#616162" stroke-width="1.5" stroke-linecap="round"
          stroke-linejoin="round"/>
    <path d="M54.21 21V19.964H49.254V16.744H54.112V15.708H49.254V12.698H54.21V11.662H48.092V21H54.21ZM61.9707 21V11.662H60.9207V15.26C60.3747 14.518 59.5487 14.07 58.6387 14.07C56.8607 14.07 55.6287 15.47 55.6287 17.626C55.6287 19.824 56.8747 21.168 58.6387 21.168C59.5907 21.168 60.4167 20.678 60.9207 19.992V21H61.9707ZM58.8907 20.23C57.5327 20.23 56.7207 19.124 56.7207 17.626C56.7207 16.128 57.5327 15.008 58.8907 15.008C59.7307 15.008 60.5427 15.512 60.9207 16.1V19.166C60.5427 19.754 59.7307 20.23 58.8907 20.23ZM64.5914 13.272C64.9834 13.272 65.3054 12.964 65.3054 12.572C65.3054 12.18 64.9834 11.858 64.5914 11.858C64.2134 11.858 63.8914 12.18 63.8914 12.572C63.8914 12.964 64.2134 13.272 64.5914 13.272ZM65.1234 21V14.238H64.0734V21H65.1234ZM68.926 21.168C69.542 21.168 69.92 20.986 70.186 20.734L69.878 19.95C69.738 20.104 69.458 20.23 69.164 20.23C68.702 20.23 68.478 19.866 68.478 19.362V15.162H69.85V14.238H68.478V12.39H67.428V14.238H66.308V15.162H67.428V19.586C67.428 20.594 67.932 21.168 68.926 21.168Z"
          fill="#616162"/>
    <path d="M6 1H88V-1H6V1ZM93 6V28H95V6H93ZM88 33H6V35H88V33ZM1 28V6H-1V28H1ZM6 33C3.23858 33 1 30.7614 1 28H-1C-1 31.866 2.13401 35 6 35V33ZM93 28C93 30.7614 90.7614 33 88 33V35C91.866 35 95 31.866 95 28H93ZM88 1C90.7614 1 93 3.23858 93 6H95C95 2.13401 91.866 -1 88 -1V1ZM6 -1C2.13401 -1 -1 2.13401 -1 6H1C1 3.23858 3.23858 1 6 1V-1Z"
          fill="#ECECEC"/>
</svg>
