<svg width="30" height="30" viewBox="0 0 30 30" fill="none" xmlns="http://www.w3.org/2000/svg">
<path fill-rule="evenodd" clip-rule="evenodd" d="M0 4.6875C0 2.09867 2.09867 0 4.6875 0H25.3125C27.9013 0 30 2.09867 30 4.6875V25.3125C30 27.9013 27.9013 30 25.3125 30H4.6875C2.09867 30 0 27.9013 0 25.3125V4.6875ZM7.5 15.1571C7.5 11.0286 10.8486 7.68 14.9771 7.68C19.1055 7.68 22.4541 11.0286 22.5 15.1571C22.5 18.4598 20.3899 21.258 17.4082 22.2672C17.0413 22.313 16.9037 22.0837 16.9037 21.9002V19.836C16.9037 19.1479 16.6743 18.6892 16.3991 18.4598C18.0505 18.2763 19.7936 17.68 19.7936 14.7901C19.7936 13.9644 19.4725 13.2763 19.0138 12.7717C19.0174 12.7573 19.0224 12.7392 19.0284 12.7176C19.0986 12.4643 19.3024 11.7292 18.922 10.7993C18.922 10.7993 18.2798 10.6158 16.8578 11.5791C16.2615 11.4415 15.6192 11.3497 14.9771 11.3497C14.3349 11.3497 13.6927 11.3956 13.0963 11.5791C11.6743 10.6158 11.0321 10.7993 11.0321 10.7993C10.6267 11.7903 10.8848 12.5601 10.9377 12.7178L10.9404 12.7259C10.4358 13.2763 10.1605 13.9185 10.1605 14.7442C10.1605 17.6341 11.9037 18.2763 13.5551 18.4598C13.3716 18.6433 13.1422 18.9644 13.0963 19.469C12.6835 19.6525 11.6285 19.9736 10.9404 18.8268C10.9404 18.8268 10.5275 18.0928 9.79357 18.047C9.79357 18.047 9.05966 18.047 9.74773 18.5057C9.74773 18.5057 10.2523 18.735 10.5734 19.6066C10.5734 19.6066 11.0321 21.0745 13.0963 20.6158V21.9002C13.0963 22.0837 12.9587 22.313 12.5918 22.2672C9.65595 21.258 7.5 18.4598 7.5 15.1571Z" fill="#2F2F2F"/>
</svg>
