<svg width="30" height="30" viewBox="0 0 30 30" fill="none" xmlns="http://www.w3.org/2000/svg">
    <rect width="30" height="30" rx="5" fill="#2F2F2F"/>
    <path d="M16.1258 13.8742C15.5285 13.2772 14.7186 12.9418 13.8742 12.9418C13.0297 12.9418 12.2199 13.2772 11.6226 13.8742L9.37029 16.1258C8.77303 16.723 8.4375 17.5331 8.4375 18.3777C8.4375 19.2224 8.77303 20.0324 9.37029 20.6297C9.96754 21.2269 10.7776 21.5625 11.6222 21.5625C12.4669 21.5625 13.2769 21.2269 13.8742 20.6297L15 19.5039"
          stroke="#E5E5E5" stroke-linecap="round" stroke-linejoin="round"/>
    <path d="M13.874 16.1258C14.4713 16.7228 15.2812 17.0581 16.1256 17.0581C16.9701 17.0581 17.78 16.7228 18.3772 16.1258L20.6295 13.8742C21.2268 13.2769 21.5623 12.4669 21.5623 11.6222C21.5623 10.7776 21.2268 9.96754 20.6295 9.37029C20.0323 8.77303 19.2222 8.4375 18.3776 8.4375C17.5329 8.4375 16.7229 8.77303 16.1256 9.37029L14.9998 10.4961"
          stroke="#E5E5E5" stroke-linecap="round" stroke-linejoin="round"/>
</svg>
