<svg width="22" height="22" viewBox="0 0 22 22" fill="none" xmlns="http://www.w3.org/2000/svg">
<path d="M10.5345 2.55658H7.10708C4.28833 2.55658 2.521 4.55216 2.521 7.37733V14.9985C2.521 17.8237 4.28008 19.8192 7.10708 19.8192H15.1957C18.0237 19.8192 19.7827 17.8237 19.7827 14.9985V11.3062" stroke="#616162" stroke-width="1.5" stroke-linecap="round" stroke-linejoin="round"/>
<path fill-rule="evenodd" clip-rule="evenodd" d="M8.09208 10.0108L14.9423 3.16055C15.7957 2.30805 17.179 2.30805 18.0324 3.16055L19.148 4.27614C20.0014 5.12955 20.0014 6.51372 19.148 7.36622L12.2647 14.2495C11.8917 14.6226 11.3857 14.8325 10.8577 14.8325H7.42383L7.50999 11.3675C7.52283 10.8578 7.73091 10.372 8.09208 10.0108Z" stroke="#616162" stroke-width="1.5" stroke-linecap="round" stroke-linejoin="round"/>
<path d="M13.9014 4.21893L18.0869 8.40443" stroke="#616162" stroke-width="1.5" stroke-linecap="round" stroke-linejoin="round"/>
</svg>
