<svg width="10" height="15" viewBox="0 0 10 15" fill="none" xmlns="http://www.w3.org/2000/svg">
<path d="M3.06504 0.722763L0.209917 3.52327C0.143365 3.58855 0.0905736 3.66605 0.0545559 3.75134C0.0185383 3.83663 0 3.92804 0 4.02036C0 4.20681 0.0755095 4.38561 0.209917 4.51745C0.344325 4.64929 0.526621 4.72335 0.716702 4.72335C0.906783 4.72335 1.08908 4.64929 1.22349 4.51745L2.85805 2.90716L2.85805 11.0216C2.85805 11.2073 2.93325 11.3854 3.06711 11.5167C3.20097 11.648 3.38252 11.7218 3.57183 11.7218C3.76113 11.7218 3.94269 11.648 4.07655 11.5167C4.21041 11.3854 4.28561 11.2073 4.28561 11.0216L4.28561 1.21985C4.28491 1.08163 4.24251 0.946705 4.16375 0.83208C4.085 0.717455 3.97342 0.62826 3.84307 0.575736C3.71308 0.52212 3.56981 0.507473 3.43135 0.533639C3.29288 0.559806 3.16542 0.625615 3.06504 0.722763ZM5.71317 4.02036L5.71317 13.8221C5.71388 13.9604 5.75628 14.0953 5.83503 14.2099C5.91378 14.3245 6.02537 14.4137 6.15572 14.4663C6.2857 14.5199 6.42897 14.5345 6.56744 14.5084C6.7059 14.4822 6.83336 14.4164 6.93374 14.3192L9.78886 11.5187C9.85577 11.4536 9.90887 11.3762 9.94511 11.2909C9.98134 11.2056 10 11.1141 10 11.0216C10 10.9292 9.98134 10.8377 9.94511 10.7524C9.90887 10.6671 9.85577 10.5896 9.78886 10.5245C9.72251 10.4589 9.64356 10.4068 9.55658 10.3713C9.4696 10.3357 9.37631 10.3174 9.28208 10.3174C9.18785 10.3174 9.09456 10.3357 9.00758 10.3713C8.9206 10.4068 8.84165 10.4589 8.7753 10.5245L7.14074 12.1348L7.14074 4.02036C7.14074 3.83468 7.06553 3.6566 6.93167 3.5253C6.79781 3.394 6.61626 3.32023 6.42695 3.32023C6.23765 3.32023 6.05609 3.394 5.92223 3.5253C5.78837 3.6566 5.71317 3.83468 5.71317 4.02036Z" fill="white"/>
</svg>
