<svg width="21" height="21" viewBox="0 0 21 21" fill="none" xmlns="http://www.w3.org/2000/svg">
<path d="M10.5 17.125V19H12.375L17.905 13.47L16.03 11.595L10.5 17.125ZM19.355 12.02C19.4014 11.9737 19.4381 11.9188 19.4632 11.8583C19.4883 11.7978 19.5012 11.733 19.5012 11.6675C19.5012 11.602 19.4883 11.5372 19.4632 11.4767C19.4381 11.4162 19.4014 11.3613 19.355 11.315L18.185 10.145C18.1387 10.0986 18.0838 10.0619 18.0233 10.0368C17.9628 10.0117 17.898 9.99878 17.8325 9.99878C17.767 9.99878 17.7022 10.0117 17.6417 10.0368C17.5812 10.0619 17.5263 10.0986 17.48 10.145L16.565 11.06L18.44 12.935L19.355 12.02Z" fill="#540196" fill-opacity="0.99"/>
<path d="M15 0H1.5C1.10254 0.00118705 0.721699 0.159604 0.440651 0.440651C0.159604 0.721699 0.00118705 1.10254 0 1.5V19.5C0.00118705 19.8975 0.159604 20.2783 0.440651 20.5593C0.721699 20.8404 1.10254 20.9988 1.5 21H7.5V19.5H1.5V1.5H15V9.75H16.5V1.5C16.4988 1.10254 16.3404 0.721699 16.0593 0.440651C15.7783 0.159604 15.3975 0.00118705 15 0Z" fill="#8C0DF0"/>
<rect x="3.5" y="3.5" width="8" height="1" fill="#8C0DF0"/>
<rect x="3.5" y="5.5" width="8" height="1" fill="#8C0DF0"/>
<rect x="3.5" y="7.5" width="3" height="1" fill="#8C0DF0"/>
</svg>
