<svg width="24" height="24" viewBox="0 0 24 24" fill="none" xmlns="http://www.w3.org/2000/svg">
<path d="M16.5 1.5H3C2.60254 1.50119 2.2217 1.6596 1.94065 1.94065C1.6596 2.2217 1.50119 2.60254 1.5 3V21C1.50119 21.3975 1.6596 21.7783 1.94065 22.0593C2.2217 22.3404 2.60254 22.4988 3 22.5H9V21H3V3H16.5V11.25H18V3C17.9988 2.60254 17.8404 2.2217 17.5593 1.94065C17.2783 1.6596 16.8975 1.50119 16.5 1.5Z" fill="#4C494F"/>
<rect x="5" y="5" width="8" height="1" fill="#4C494F"/>
<rect x="5" y="7" width="8" height="1" fill="#4C494F"/>
<rect x="5" y="9" width="3" height="1" fill="#4C494F"/>
<path d="M15 14C15.5523 14 16 13.5523 16 13C16 12.4477 15.5523 12 15 12C14.4477 12 14 12.4477 14 13C14 13.5523 14.4477 14 15 14Z" fill="#4C494F"/>
<path d="M15 20H16V17.5H17V15.5C17 14.9485 16.5515 14.5 16 14.5H14C13.4485 14.5 13 14.9485 13 15.5V17.5H14V20H15Z" fill="#4C494F"/>
<path d="M18.223 16.693L17.7765 17.5875C18.554 17.975 19 18.49 19 19C19 19.946 17.3575 21 15 21C12.6425 21 11 19.946 11 19C11 18.49 11.446 17.975 12.223 17.5875L11.7765 16.693C10.6475 17.256 10 18.0965 10 19C10 20.682 12.1965 22 15 22C17.8035 22 20 20.682 20 19C20 18.0965 19.3525 17.256 18.223 16.693Z" fill="#4C494F"/>
</svg>
