<svg width="94" height="34" viewBox="0 0 94 34" fill="none" xmlns="http://www.w3.org/2000/svg">
    <rect x="0.5" y="0.5" width="93" height="33" rx="5.5" fill="white"/>
    <path d="M27.3833 15.3121C27.3833 15.3121 27.0213 19.8021 26.8113 21.6935C26.7113 22.5968 26.1533 23.1261 25.2393 23.1428C23.4999 23.1741 21.7586 23.1761 20.0199 23.1395C19.1406 23.1215 18.5919 22.5855 18.4939 21.6981C18.2826 19.7901 17.9226 15.3121 17.9226 15.3121"
          stroke="#616162" stroke-width="1.5" stroke-linecap="round" stroke-linejoin="round"/>
    <path d="M28.3055 13.1598H17.0001" stroke="#616162" stroke-width="1.5" stroke-linecap="round"
          stroke-linejoin="round"/>
    <path d="M26.127 13.1598C25.6037 13.1598 25.153 12.7898 25.0503 12.2771L24.8883 11.4665C24.7883 11.0925 24.4497 10.8338 24.0637 10.8338H21.2417C20.8557 10.8338 20.517 11.0925 20.417 11.4665L20.255 12.2771C20.1523 12.7898 19.7017 13.1598 19.1783 13.1598"
          stroke="#616162" stroke-width="1.5" stroke-linecap="round" stroke-linejoin="round"/>
    <path d="M42.784 21C45.682 21 47.572 18.998 47.572 16.338C47.572 13.692 45.682 11.662 42.784 11.662H39.592V21H42.784ZM42.784 19.964H40.754V12.698H42.784C45.094 12.698 46.368 14.322 46.368 16.338C46.368 18.34 45.052 19.964 42.784 19.964ZM52.4047 21.168C53.5107 21.168 54.4207 20.804 55.0927 20.132L54.5887 19.446C54.0567 19.992 53.2727 20.3 52.5027 20.3C51.0467 20.3 50.1507 19.236 50.0667 17.962H55.5407V17.696C55.5407 15.666 54.3367 14.07 52.2927 14.07C50.3607 14.07 48.9607 15.652 48.9607 17.612C48.9607 19.726 50.4027 21.168 52.4047 21.168ZM54.5047 17.192H50.0667C50.1227 16.156 50.8367 14.938 52.2787 14.938C53.8187 14.938 54.4907 16.184 54.5047 17.192ZM58.2914 21V11.662H57.2414V21H58.2914ZM63.4379 21.168C64.5439 21.168 65.4539 20.804 66.1259 20.132L65.6219 19.446C65.0899 19.992 64.3059 20.3 63.5359 20.3C62.0799 20.3 61.1839 19.236 61.0999 17.962H66.5739V17.696C66.5739 15.666 65.3699 14.07 63.3259 14.07C61.3939 14.07 59.9939 15.652 59.9939 17.612C59.9939 19.726 61.4359 21.168 63.4379 21.168ZM65.5379 17.192H61.0999C61.1559 16.156 61.8699 14.938 63.3119 14.938C64.8519 14.938 65.5239 16.184 65.5379 17.192ZM69.9826 21.168C70.5986 21.168 70.9766 20.986 71.2426 20.734L70.9346 19.95C70.7946 20.104 70.5146 20.23 70.2206 20.23C69.7586 20.23 69.5346 19.866 69.5346 19.362V15.162H70.9066V14.238H69.5346V12.39H68.4846V14.238H67.3646V15.162H68.4846V19.586C68.4846 20.594 68.9886 21.168 69.9826 21.168ZM75.4418 21.168C76.5478 21.168 77.4578 20.804 78.1298 20.132L77.6258 19.446C77.0938 19.992 76.3098 20.3 75.5398 20.3C74.0838 20.3 73.1878 19.236 73.1038 17.962H78.5778V17.696C78.5778 15.666 77.3738 14.07 75.3298 14.07C73.3978 14.07 71.9978 15.652 71.9978 17.612C71.9978 19.726 73.4398 21.168 75.4418 21.168ZM77.5418 17.192H73.1038C73.1598 16.156 73.8738 14.938 75.3158 14.938C76.8558 14.938 77.5278 16.184 77.5418 17.192Z"
          fill="#616162"/>
    <rect x="0.5" y="0.5" width="93" height="33" rx="5.5" stroke="#ECECEC"/>
</svg>
