<svg width="22" height="22" viewBox="0 0 22 22" fill="none" xmlns="http://www.w3.org/2000/svg">
<rect x="0.5" y="0.5" width="21" height="21" rx="1.5" fill="#F5F5F5" stroke="#D9D9D9"/>
<path d="M6.91308 10.0352H6.91326C6.99256 10.0353 7.07081 10.0533 7.14213 10.088C7.21341 10.1226 7.27591 10.173 7.32497 10.2352L6.91308 10.0352ZM6.91308 10.0352H6.09394C5.89031 10.0352 5.7766 10.2698 5.90232 10.4292L5.90237 10.4293L9.11214 14.4957L9.11218 14.4957C9.32247 14.7619 9.72568 14.7611 9.93667 14.4962L9.93708 14.4957L15.6597 7.24398C15.6598 7.24378 15.66 7.24358 15.6602 7.24338C15.7884 7.08295 15.6699 6.85 15.4689 6.85H14.6498C14.4894 6.85 14.3367 6.9235 14.2376 7.05044C14.2375 7.05055 14.2374 7.05066 14.2373 7.05077L9.52403 13.0216M6.91308 10.0352L9.52403 13.0216M9.52403 13.0216L7.32506 10.2353L9.52403 13.0216Z" fill="#BFBFBF" stroke="#BFBFBF" stroke-width="0.3"/>
</svg>
