<svg width="15" height="15" viewBox="0 0 15 15" fill="none" xmlns="http://www.w3.org/2000/svg">
<path d="M9.12063 9.82763L13.1466 13.8546C13.1931 13.9011 13.2483 13.938 13.309 13.9632C13.3698 13.9883 13.4349 14.0013 13.5006 14.0013C13.5664 14.0013 13.6315 13.9883 13.6922 13.9632C13.753 13.938 13.8081 13.9011 13.8546 13.8546C13.9011 13.8081 13.938 13.753 13.9632 13.6922C13.9883 13.6315 14.0013 13.5664 14.0013 13.5006C14.0013 13.4349 13.9883 13.3698 13.9632 13.309C13.938 13.2483 13.9011 13.1931 13.8546 13.1466L0.854632 0.146632C0.808144 0.100144 0.752954 0.0632674 0.692215 0.0381083C0.631476 0.0129492 0.566375 4.8983e-10 0.500632 0C0.434888 -4.8983e-10 0.369788 0.0129492 0.309048 0.0381083C0.248309 0.0632674 0.19312 0.100144 0.146632 0.146632C0.100144 0.19312 0.0632674 0.248309 0.0381083 0.309048C0.0129492 0.369788 -4.8983e-10 0.434888 0 0.500632C4.8983e-10 0.566375 0.0129492 0.631476 0.0381083 0.692215C0.0632674 0.752954 0.100144 0.808144 0.146632 0.854632L3.37663 4.08463C2.93701 4.39605 2.54144 4.76539 2.20063 5.18263C1.71803 5.77479 1.34025 6.44512 1.08363 7.16463C1.06263 7.22563 1.03663 7.30963 1.03663 7.30963L1.01863 7.37163C1.01863 7.37163 0.942631 7.86863 1.37363 7.98263C1.50173 8.01649 1.63802 7.99812 1.75259 7.93156C1.86715 7.865 1.95061 7.75568 1.98463 7.62763L1.98563 7.62463L1.99363 7.59963L2.02863 7.49063C2.24659 6.88316 2.56613 6.31711 2.97363 5.81663C3.29398 5.42289 3.6731 5.08088 4.09763 4.80263L5.67563 6.38063C5.35719 6.58022 5.08785 6.84903 4.88764 7.16707C4.68742 7.48511 4.56149 7.8442 4.5192 8.21763C4.47691 8.59106 4.51936 8.96921 4.64338 9.32397C4.7674 9.67873 4.96981 10.001 5.23555 10.2667C5.5013 10.5325 5.82353 10.7349 6.17829 10.8589C6.53305 10.9829 6.91121 11.0254 7.28463 10.9831C7.65806 10.9408 8.01715 10.8148 8.33519 10.6146C8.65323 10.4144 8.92205 10.1451 9.12163 9.82663L9.12063 9.82763ZM8.38063 9.08763C8.28465 9.31364 8.13465 9.51263 7.9438 9.66713C7.75296 9.82163 7.5271 9.92692 7.28606 9.97375C7.04502 10.0206 6.79617 10.0075 6.56136 9.93572C6.32655 9.86392 6.11295 9.73557 5.93932 9.56194C5.7657 9.38831 5.63735 9.17472 5.56555 8.9399C5.49374 8.70509 5.48069 8.45624 5.52752 8.2152C5.57435 7.97416 5.67963 7.74831 5.83413 7.55746C5.98863 7.36661 6.18762 7.21662 6.41363 7.12063L8.38263 9.08863L8.38063 9.08763ZM5.32063 3.20063L6.17463 4.05463C6.43463 4.01963 6.70963 4.00063 7.00063 4.00063C9.04463 4.00063 10.2866 4.91263 11.0286 5.81763C11.4362 6.31805 11.7558 6.88412 11.9736 7.49163C11.9906 7.53963 12.0016 7.57663 12.0086 7.60063L12.0166 7.62563V7.62863L12.0176 7.62963C12.0546 7.75443 12.1388 7.85988 12.2524 7.92357C12.3659 7.98726 12.4998 8.00417 12.6256 7.9707C12.7513 7.93723 12.8591 7.85603 12.926 7.74435C12.9929 7.63267 13.0135 7.49932 12.9836 7.37263V7.36963L12.9826 7.36563L12.9786 7.35263C12.9613 7.28947 12.9413 7.22708 12.9186 7.16563C12.662 6.44612 12.2842 5.77579 11.8016 5.18363C10.9056 4.08863 9.39663 3.00063 7.00263 3.00063C6.38463 3.00063 5.82563 3.07263 5.32163 3.19963L5.32063 3.20063Z" fill="#4C494F"/>
</svg>
