<svg width="11" height="7" viewBox="0 0 11 7" fill="none" xmlns="http://www.w3.org/2000/svg">
<path d="M1.06621 4.26883C1.01698 4.41141 0.917287 4.528 0.78831 4.59384C0.659334 4.65968 0.511241 4.66958 0.375497 4.62142C0.239753 4.57327 0.127058 4.47087 0.061356 4.33597C-0.00434593 4.20107 -0.017876 4.04431 0.0236406 3.899C0.012643 3.934 0.0236406 3.89783 0.0236406 3.89783C0.0432504 3.83362 0.0660097 3.77053 0.0918255 3.70883C0.135816 3.598 0.200701 3.44517 0.289782 3.26433C0.470142 2.90267 0.753879 2.42083 1.16959 1.939C2.0131 0.964834 3.39109 0 5.49383 0C7.59766 0 8.97566 0.964834 9.81697 1.939C10.2661 2.46156 10.6303 3.05964 10.8947 3.70883C10.9167 3.76367 10.9332 3.808 10.9442 3.84067C10.9486 3.85 10.9596 3.91067 10.9706 3.969C10.9805 4.02267 10.9893 4.074 10.9926 4.08333C10.9926 4.08333 11.085 4.47183 10.6165 4.63633C10.4785 4.68521 10.3279 4.6741 10.1977 4.60545C10.0674 4.53679 9.96807 4.41617 9.92145 4.27V4.2665L9.91375 4.24783C9.8585 4.09796 9.79535 3.95151 9.72459 3.80917C9.52939 3.41783 9.28807 3.05442 9.00645 2.72767C8.3356 1.95183 7.23914 1.16667 5.49383 1.16667C3.74852 1.16667 2.65206 1.95183 1.98121 2.72767C1.618 3.15008 1.32264 3.63289 1.1069 4.15683C1.09536 4.18694 1.08436 4.21728 1.07391 4.24783L1.06621 4.26883Z" fill="#4C494F"/>
<path d="M5.49395 2.3334C4.9106 2.3334 4.35114 2.57924 3.93866 3.01682C3.52617 3.45441 3.29443 4.0479 3.29443 4.66674C3.29443 5.28558 3.52617 5.87907 3.93866 6.31665C4.35114 6.75424 4.9106 7.00007 5.49395 7.00007C6.07729 7.00007 6.63675 6.75424 7.04924 6.31665C7.46173 5.87907 7.69346 5.28558 7.69346 4.66674C7.69346 4.0479 7.46173 3.45441 7.04924 3.01682C6.63675 2.57924 6.07729 2.3334 5.49395 2.3334ZM4.39419 4.66674C4.39419 4.35732 4.51006 4.06057 4.7163 3.84178C4.92255 3.62299 5.20227 3.50007 5.49395 3.50007C5.78562 3.50007 6.06535 3.62299 6.27159 3.84178C6.47784 4.06057 6.5937 4.35732 6.5937 4.66674C6.5937 4.97616 6.47784 5.2729 6.27159 5.4917C6.06535 5.71049 5.78562 5.8334 5.49395 5.8334C5.20227 5.8334 4.92255 5.71049 4.7163 5.4917C4.51006 5.2729 4.39419 4.97616 4.39419 4.66674Z" fill="#4C494F"/>
</svg>
