<svg width="121" height="42" viewBox="0 0 121 42" fill="none" xmlns="http://www.w3.org/2000/svg">
    <path d="M116.598 31.6968C115.159 29.2981 113.899 29.2981 113 28.9983C113.6 28.6985 114.859 28.3986 116.298 26C118.097 27.799 118.697 28.0988 119.896 28.6985C119.296 28.9983 118.037 29.2981 116.598 31.6968Z"
          fill="#F9F9F9"/>
    <path d="M113 28.9983L112.857 28.7123L112.166 29.0575L112.899 29.3017L113 28.9983ZM116.598 31.6968L116.324 31.8613L116.598 32.3183L116.872 31.8613L116.598 31.6968ZM119.896 28.6985L120.039 28.9845L120.611 28.6985L120.039 28.4125L119.896 28.6985ZM116.298 26L116.524 25.7739L116.235 25.4843L116.024 25.8355L116.298 26ZM112.899 29.3017C113.414 29.4735 113.867 29.5208 114.441 29.84C114.989 30.1445 115.626 30.6991 116.324 31.8613L116.872 31.5323C116.13 30.2959 115.418 29.6511 114.752 29.281C114.112 28.9255 113.485 28.823 113.101 28.6949L112.899 29.3017ZM119.753 28.4125C119.498 28.5401 118.972 28.7193 118.374 29.1515C117.765 29.5927 117.062 30.3015 116.324 31.5323L116.872 31.8613C117.573 30.6934 118.22 30.053 118.749 29.6696C119.291 29.2773 119.695 29.1567 120.039 28.9845L119.753 28.4125ZM113.143 29.2843C113.398 29.1567 113.924 28.9775 114.522 28.5453C115.131 28.1041 115.834 27.3953 116.572 26.1645L116.024 25.8355C115.323 27.0034 114.677 27.6438 114.147 28.0272C113.605 28.4195 113.201 28.5401 112.857 28.7123L113.143 29.2843ZM120.039 28.4125C119.438 28.112 119.01 27.8971 118.508 27.5388C118.004 27.179 117.419 26.6685 116.524 25.7739L116.072 26.2261C116.976 27.1305 117.59 27.6694 118.136 28.0592C118.684 28.4504 119.155 28.6853 119.753 28.9845L120.039 28.4125Z"
          fill="white"/>
    <path d="M15.232 11.456V14.62H10.024V31H6.104V14.62H0.896V11.456H15.232ZM17.6442 23.188C17.6442 21.62 17.9522 20.2293 18.5682 19.016C19.2028 17.8027 20.0522 16.8693 21.1162 16.216C22.1988 15.5627 23.4028 15.236 24.7282 15.236C25.8855 15.236 26.8935 15.4693 27.7522 15.936C28.6295 16.4027 29.3295 16.9907 29.8522 17.7V15.488H33.8002V31H29.8522V28.732C29.3482 29.46 28.6482 30.0667 27.7522 30.552C26.8748 31.0187 25.8575 31.252 24.7002 31.252C23.3935 31.252 22.1988 30.916 21.1162 30.244C20.0522 29.572 19.2028 28.6293 18.5682 27.416C17.9522 26.184 17.6442 24.7747 17.6442 23.188ZM29.8522 23.244C29.8522 22.292 29.6655 21.48 29.2922 20.808C28.9188 20.1173 28.4148 19.5947 27.7802 19.24C27.1455 18.8667 26.4642 18.68 25.7362 18.68C25.0082 18.68 24.3362 18.8573 23.7202 19.212C23.1042 19.5667 22.6002 20.0893 22.2082 20.78C21.8348 21.452 21.6482 22.2547 21.6482 23.188C21.6482 24.1213 21.8348 24.9427 22.2082 25.652C22.6002 26.3427 23.1042 26.8747 23.7202 27.248C24.3548 27.6213 25.0268 27.808 25.7362 27.808C26.4642 27.808 27.1455 27.6307 27.7802 27.276C28.4148 26.9027 28.9188 26.38 29.2922 25.708C29.6655 25.0173 29.8522 24.196 29.8522 23.244ZM42.1087 10.28V31H38.1887V10.28H42.1087ZM60.9617 22.908C60.9617 23.468 60.9244 23.972 60.8497 24.42H49.5097C49.603 25.54 49.995 26.4173 50.6857 27.052C51.3764 27.6867 52.2257 28.004 53.2337 28.004C54.6897 28.004 55.7257 27.3787 56.3417 26.128H60.5697C60.1217 27.6213 59.263 28.8533 57.9937 29.824C56.7244 30.776 55.1657 31.252 53.3177 31.252C51.8244 31.252 50.4804 30.9253 49.2857 30.272C48.1097 29.6 47.1857 28.6573 46.5137 27.444C45.8604 26.2307 45.5337 24.8307 45.5337 23.244C45.5337 21.6387 45.8604 20.2293 46.5137 19.016C47.167 17.8027 48.0817 16.8693 49.2577 16.216C50.4337 15.5627 51.787 15.236 53.3177 15.236C54.7924 15.236 56.1084 15.5533 57.2657 16.188C58.4417 16.8227 59.347 17.728 59.9817 18.904C60.635 20.0613 60.9617 21.396 60.9617 22.908ZM56.9017 21.788C56.883 20.78 56.519 19.9773 55.8097 19.38C55.1004 18.764 54.2324 18.456 53.2057 18.456C52.235 18.456 51.4137 18.7547 50.7417 19.352C50.0884 19.9307 49.687 20.7427 49.5377 21.788H56.9017ZM72.9789 15.264C74.8269 15.264 76.3203 15.852 77.4589 17.028C78.5976 18.1853 79.1669 19.8093 79.1669 21.9V31H75.2469V22.432C75.2469 21.2 74.9389 20.2573 74.3229 19.604C73.7069 18.932 72.8669 18.596 71.8029 18.596C70.7203 18.596 69.8616 18.932 69.2269 19.604C68.6109 20.2573 68.3029 21.2 68.3029 22.432V31H64.3829V15.488H68.3029V17.42C68.8256 16.748 69.4883 16.2253 70.2909 15.852C71.1123 15.46 72.0083 15.264 72.9789 15.264ZM88.0187 18.708V26.212C88.0187 26.7347 88.14 27.1173 88.3827 27.36C88.644 27.584 89.0733 27.696 89.6707 27.696H91.4907V31H89.0267C85.7227 31 84.0707 29.3947 84.0707 26.184V18.708H82.2227V15.488H84.0707V11.652H88.0187V15.488H91.4907V18.708H88.0187ZM109.71 15.488L100.106 38.336H95.9341L99.2941 30.608L93.0781 15.488H97.4741L101.478 26.324L105.538 15.488H109.71Z"
          fill="#F9F9F9"/>
</svg>
