<svg width="17" height="16" viewBox="0 0 17 16" fill="none" xmlns="http://www.w3.org/2000/svg">
<path d="M6.69341 14.0004C6.14263 13.9978 5.59787 13.8856 5.09084 13.6704C4.58382 13.4553 4.12466 13.1414 3.74008 12.7471C3.35839 12.3853 3.05178 11.9519 2.8378 11.4715C2.62382 10.9911 2.50666 10.4732 2.49304 9.94751C2.47942 9.4218 2.56959 8.89856 2.75841 8.40774C2.94722 7.91691 3.23097 7.46814 3.59341 7.0871L8.50008 2.13376C8.76211 1.87221 9.07442 1.66648 9.41817 1.52898C9.76191 1.39148 10.13 1.32507 10.5001 1.33376C10.8966 1.33511 11.2888 1.41539 11.6539 1.56991C12.019 1.72443 12.3497 1.9501 12.6267 2.23376C13.1781 2.76459 13.4978 3.49144 13.5165 4.25655C13.5352 5.02165 13.2515 5.76327 12.7267 6.32043L7.79341 11.2738C7.6354 11.4328 7.44737 11.559 7.24023 11.6448C7.03309 11.7306 6.81096 11.7745 6.58675 11.7738C6.34453 11.7741 6.1047 11.7259 5.88142 11.632C5.65815 11.5381 5.45594 11.4004 5.28675 11.2271C4.94856 10.8997 4.75326 10.452 4.74327 9.9814C4.73329 9.51078 4.90943 9.05524 5.23341 8.71376L9.78675 4.14043C9.91633 4.05437 10.0719 4.01633 10.2266 4.03291C10.3813 4.04948 10.5253 4.11963 10.6337 4.2312C10.7421 4.34277 10.8081 4.48874 10.8202 4.64383C10.8323 4.79892 10.7898 4.95337 10.7001 5.08043L6.14675 9.65376C6.07082 9.74524 6.03386 9.86288 6.04384 9.98134C6.05381 10.0998 6.10992 10.2096 6.20008 10.2871C6.29389 10.3816 6.42035 10.4364 6.55341 10.4404C6.6027 10.4411 6.65164 10.4321 6.69741 10.4138C6.74318 10.3955 6.78487 10.3683 6.82008 10.3338L11.7467 5.38043C12.0233 5.07322 12.1678 4.66952 12.1491 4.2566C12.1304 3.84367 11.9499 3.4547 11.6467 3.17376C11.3651 2.88139 10.9822 2.70807 10.5767 2.68947C10.1712 2.67087 9.77394 2.8084 9.46675 3.07376L4.54008 8.00043C4.30051 8.25774 4.11419 8.55989 3.99183 8.88949C3.86947 9.21909 3.8135 9.56963 3.82713 9.92094C3.84076 10.2722 3.92373 10.6174 4.07126 10.9365C4.21878 11.2556 4.42796 11.5425 4.68675 11.7804C4.94626 12.0495 5.25679 12.2641 5.60019 12.4117C5.94358 12.5594 6.31296 12.6371 6.68675 12.6404C7.00902 12.643 7.32865 12.582 7.62725 12.4607C7.92585 12.3394 8.19755 12.1603 8.42675 11.9338L13.3534 6.98043C13.4151 6.91827 13.4885 6.86888 13.5693 6.83507C13.6501 6.80126 13.7368 6.7837 13.8244 6.78339C13.912 6.78308 13.9988 6.80003 14.0798 6.83326C14.1609 6.8665 14.2346 6.91537 14.2967 6.9771C14.3589 7.03882 14.4083 7.11218 14.4421 7.19299C14.4759 7.2738 14.4935 7.36048 14.4938 7.44807C14.4941 7.53567 14.4771 7.62247 14.4439 7.70352C14.4107 7.78456 14.3618 7.85827 14.3001 7.92043L9.37341 12.8738C9.02362 13.2297 8.60657 13.5127 8.14649 13.7061C7.68641 13.8995 7.19249 13.9995 6.69341 14.0004Z" fill="#616162"/>
</svg>
