<svg width="10" height="8" viewBox="0 0 10 8" fill="none" xmlns="http://www.w3.org/2000/svg">
<path d="M6.52584 0.212323L5.00042 2.63283L3.475 0.212323C3.44479 0.16455 3.40392 0.122523 3.3548 0.0887137C3.30568 0.0549035 3.2493 0.0299931 3.18898 0.0154462C3.12865 0.000898875 3.0656 -0.00299069 3.00352 0.00400547C2.94144 0.0110016 2.8816 0.0287419 2.8275 0.0561843L2.82959 0.0550952L2.16959 0.386617C2.11542 0.413917 2.06807 0.450384 2.03031 0.493872C1.99256 0.537359 1.96517 0.586988 1.94976 0.639837C1.93435 0.692687 1.93122 0.74769 1.94056 0.801609C1.94991 0.855527 1.97153 0.907273 2.00417 0.953799L2.00292 0.951983L3.64584 3.3133L0.477917 3.25412L0.468751 3.25412C0.21 3.25412 5.43545e-08 3.43676 5.16616e-08 3.66226L4.37435e-08 4.3253C4.10507e-08 4.55079 0.21 4.7338 0.468751 4.7338L0.479167 4.7338L0.478751 4.7338L3.64667 4.67461L2.00417 7.0363C1.9719 7.08262 1.95053 7.13407 1.94132 7.18766C1.93211 7.24125 1.93524 7.2959 1.95052 7.34843C1.9658 7.40095 1.99293 7.4503 2.03033 7.49359C2.06772 7.53688 2.11464 7.57325 2.16834 7.60057L2.17042 7.60166L2.82917 7.93319C2.88299 7.96041 2.94251 7.978 3.00423 7.98494C3.06595 7.99187 3.12864 7.988 3.18862 7.97356C3.24861 7.95913 3.30468 7.93441 3.35357 7.90085C3.40246 7.86729 3.44318 7.82557 3.47334 7.77814L3.47459 7.77596L5.00001 5.35545L6.52542 7.77596C6.55564 7.82373 6.5965 7.86576 6.64562 7.89957C6.69474 7.93338 6.75112 7.95829 6.81145 7.97284C6.87178 7.98738 6.93483 7.99127 6.99691 7.98428C7.05898 7.97728 7.11883 7.95954 7.17292 7.9321L7.17084 7.93319L7.83001 7.60166C7.88417 7.57436 7.93153 7.5379 7.96928 7.49441C8.00703 7.45092 8.03442 7.40129 8.04983 7.34844C8.06525 7.29559 8.06837 7.24059 8.05903 7.18667C8.04969 7.13275 8.02806 7.08101 7.99542 7.03448L7.99668 7.0363L6.35376 4.67498L9.52168 4.73416L9.53168 4.73416C9.79043 4.73416 10.0004 4.55116 10.0004 4.32566L10.0004 3.66262C10.0004 3.43713 9.79043 3.25412 9.53168 3.25412L9.52126 3.25412L9.52168 3.25412L6.35376 3.3133L7.99668 0.951984C8.02895 0.905665 8.05031 0.85421 8.05952 0.800621C8.06873 0.747031 8.06561 0.69238 8.05032 0.639855C8.03504 0.587329 8.00791 0.537981 7.97052 0.49469C7.93312 0.451398 7.8862 0.41503 7.83251 0.387706L7.83042 0.386617L7.17126 0.0550953C7.11743 0.0278722 7.05792 0.0102793 6.9962 0.00334605C6.93448 -0.00358716 6.87179 0.000278555 6.81181 0.0147167C6.75182 0.0291549 6.69574 0.053876 6.64686 0.0874325C6.59797 0.120989 6.55725 0.162706 6.52709 0.210144L6.52584 0.212323Z" fill="#8C0DF0"/>
</svg>
