<svg width="22" height="22" viewBox="0 0 22 22" fill="none" xmlns="http://www.w3.org/2000/svg">
<path d="M10.9954 15.2873V12.9617" stroke="#4C494F" stroke-width="1.5" stroke-linecap="round" stroke-linejoin="round"/>
<path fill-rule="evenodd" clip-rule="evenodd" d="M16.6738 4.88623C18.223 4.88623 19.4697 6.14206 19.4697 7.69123V10.8446C17.2147 12.1646 14.2355 12.9621 10.9905 12.9621C7.74551 12.9621 4.77551 12.1646 2.52051 10.8446V7.68206C2.52051 6.1329 3.77634 4.88623 5.32551 4.88623H16.6738Z" stroke="#4C494F" stroke-width="1.5" stroke-linecap="round" stroke-linejoin="round"/>
<path d="M14.2038 4.88209V4.54659C14.2038 3.42825 13.2963 2.52075 12.1779 2.52075H9.81294C8.69461 2.52075 7.78711 3.42825 7.78711 4.54659V4.88209" stroke="#4C494F" stroke-width="1.5" stroke-linecap="round" stroke-linejoin="round"/>
<path d="M2.54297 14.1929L2.71622 16.4928C2.83355 18.0429 4.12514 19.241 5.67889 19.241H16.3113C17.8651 19.241 19.1566 18.0429 19.274 16.4928L19.4472 14.1929" stroke="#4C494F" stroke-width="1.5" stroke-linecap="round" stroke-linejoin="round"/>
</svg>
