<svg width="31" height="31" viewBox="0 0 31 31" fill="none" xmlns="http://www.w3.org/2000/svg">
<path d="M30.2422 15.5C30.2422 12.5844 29.3777 9.73434 27.7579 7.31008C26.1382 4.88582 23.836 2.99627 21.1425 1.88036C18.4489 0.764449 15.4849 0.472285 12.6253 1.04081C9.76573 1.60934 7.13892 3.01302 5.07703 5.07438C3.01515 7.13573 1.6108 9.76219 1.04154 12.6216C0.47229 15.4811 0.763698 18.4451 1.87892 21.139C2.99415 23.8328 4.88311 26.1355 7.30695 27.7559C9.7308 29.3762 12.5807 30.2415 15.4962 30.2422H15.5L15.5038 30.2421C19.4116 30.2367 23.1578 28.6816 25.9207 25.918C28.6837 23.1544 30.2378 19.4079 30.2422 15.5ZM16.3672 28.4782V18.6798H20.125C20.355 18.6798 20.5756 18.5885 20.7382 18.4258C20.9008 18.2632 20.9922 18.0426 20.9922 17.8127C20.9922 17.5827 20.9008 17.3621 20.7382 17.1995C20.5756 17.0368 20.355 16.9455 20.125 16.9455H16.3672V13.1877C16.368 12.4979 16.6423 11.8366 17.13 11.3489C17.6177 10.8612 18.279 10.5869 18.9688 10.5861H21.2813C21.5112 10.5861 21.7318 10.4947 21.8944 10.3321C22.0571 10.1695 22.1484 9.94889 22.1484 9.7189C22.1484 9.48891 22.0571 9.26834 21.8944 9.10571C21.7318 8.94308 21.5112 8.85171 21.2813 8.85171H18.9688C17.8192 8.85301 16.7171 9.31025 15.9042 10.1231C15.0914 10.936 14.6341 12.0381 14.6328 13.1877V16.9455H10.875C10.645 16.9455 10.4244 17.0368 10.2618 17.1995C10.0992 17.3621 10.0078 17.5827 10.0078 17.8127C10.0078 18.0426 10.0992 18.2632 10.2618 18.4258C10.4244 18.5885 10.645 18.6798 10.875 18.6798H14.6328V28.4782C11.2656 28.2532 8.11754 26.7284 5.85356 24.2257C3.58958 21.723 2.38688 18.4384 2.49943 15.0655C2.61199 11.6926 4.03099 8.49547 6.45678 6.14928C8.88257 3.80309 12.1252 2.4915 15.5 2.4915C18.8748 2.4915 22.1174 3.80309 24.5432 6.14928C26.969 8.49547 28.388 11.6926 28.5006 15.0655C28.6131 18.4384 27.4104 21.723 25.1464 24.2257C22.8825 26.7284 19.7345 28.2532 16.3672 28.4782Z" fill="#395185"/>
</svg>
