<svg width="29" height="29" viewBox="0 0 29 29" fill="none" xmlns="http://www.w3.org/2000/svg">
<path d="M24.7094 24.7097H20.4125V17.9805C20.4125 16.3758 20.3838 14.3101 18.1777 14.3101C15.9397 14.3101 15.5972 16.0585 15.5972 17.8637V24.7093H11.3005V10.8713H15.4254V12.7624H15.4832C15.896 12.0565 16.4925 11.4759 17.2092 11.0822C17.9259 10.6886 18.736 10.4967 19.5531 10.527C23.9082 10.527 24.7112 13.3917 24.7112 17.1184L24.7094 24.7097ZM6.45205 8.97981C5.07489 8.98004 3.95827 7.86377 3.95805 6.48661C3.95782 5.10945 5.07398 3.99283 6.45114 3.99261C7.8283 3.99227 8.94492 5.10854 8.94514 6.4857C8.94526 7.14704 8.68267 7.78134 8.21513 8.24908C7.74758 8.71681 7.11339 8.97966 6.45205 8.97981ZM8.60054 24.7098H4.29914V10.8713H8.60043V24.7097L8.60054 24.7098ZM26.8515 0.00204961H2.14C0.972066 -0.011091 0.0142734 0.924499 0 2.09243V26.907C0.0138203 28.0755 0.9715 29.012 2.13988 28.9998H26.8515C28.0224 29.0143 28.9838 28.0778 29 26.907V2.0905C28.9834 0.920307 28.0218 -0.0151691 26.8515 0.000123828" fill="#0A66C2"/>
</svg>
