<svg width="29" height="29" viewBox="0 0 29 29" fill="none" xmlns="http://www.w3.org/2000/svg">
<path d="M29 3.53136C27.9329 4.11094 26.7863 4.50265 25.5828 4.67887C26.8113 3.77695 27.7546 2.34874 28.1988 0.647036C27.0309 1.49592 25.7531 2.09402 24.4207 2.41548C23.3354 0.999199 21.7892 0.114075 20.0779 0.114075C16.792 0.114075 14.128 3.37706 14.128 7.40154C14.128 7.9728 14.1807 8.52893 14.282 9.06245C9.33732 8.75843 4.95334 5.85718 2.01878 1.44807C1.50675 2.5244 1.21336 3.7764 1.21336 5.11179C1.21336 7.6402 2.26381 9.8707 3.86017 11.1776C2.91535 11.1414 1.99131 10.8288 1.16521 10.266C1.16487 10.2965 1.16487 10.3271 1.16487 10.3577C1.16487 13.8887 3.21571 16.8342 5.93741 17.5037C5.06128 17.7955 4.14228 17.8382 3.25061 17.6285C4.00766 20.5238 6.20498 22.6307 8.80841 22.6897C6.77218 24.6442 4.2067 25.8093 1.4193 25.8093C0.938988 25.8093 0.465473 25.7748 0 25.7075C2.633 27.7752 5.76035 28.9817 9.12027 28.9817C20.064 28.9817 26.0483 17.8769 26.0483 8.2467C26.0483 7.93061 26.0427 7.61633 26.0311 7.30385C27.1959 6.27246 28.2013 4.99497 29 3.53136Z" fill="#55ACEE"/>
</svg>
