<svg width="28" height="26" viewBox="0 0 28 26" fill="none" xmlns="http://www.w3.org/2000/svg">
<path d="M0.875 16.3252C1.10706 16.3252 1.32962 16.4174 1.49372 16.5815C1.65781 16.7456 1.75 16.9681 1.75 17.2002V21.5752C1.75 22.0393 1.93437 22.4844 2.26256 22.8126C2.59075 23.1408 3.03587 23.3252 3.5 23.3252H24.5C24.9641 23.3252 25.4092 23.1408 25.7374 22.8126C26.0656 22.4844 26.25 22.0393 26.25 21.5752V17.2002C26.25 16.9681 26.3422 16.7456 26.5063 16.5815C26.6704 16.4174 26.8929 16.3252 27.125 16.3252C27.3571 16.3252 27.5796 16.4174 27.7437 16.5815C27.9078 16.7456 28 16.9681 28 17.2002V21.5752C28 22.5035 27.6313 23.3937 26.9749 24.0501C26.3185 24.7064 25.4283 25.0752 24.5 25.0752H3.5C2.57174 25.0752 1.6815 24.7064 1.02513 24.0501C0.368749 23.3937 0 22.5035 0 21.5752V17.2002C0 16.9681 0.0921872 16.7456 0.256282 16.5815C0.420376 16.4174 0.642936 16.3252 0.875 16.3252Z" fill="black"/>
<path d="M13.3797 1.0056C13.4609 0.924114 13.5575 0.859464 13.6638 0.815352C13.7701 0.771241 13.8841 0.748535 13.9992 0.748535C14.1142 0.748535 14.2282 0.771241 14.3345 0.815352C14.4408 0.859464 14.5374 0.924114 14.6187 1.0056L19.8687 6.2556C20.033 6.4199 20.1253 6.64274 20.1253 6.8751C20.1253 7.10746 20.033 7.3303 19.8687 7.4946C19.7043 7.6589 19.4815 7.7512 19.2492 7.7512C19.0168 7.7512 18.794 7.6589 18.6297 7.4946L14.8742 3.73735V19.1251C14.8742 19.3572 14.782 19.5797 14.6179 19.7438C14.4538 19.9079 14.2312 20.0001 13.9992 20.0001C13.7671 20.0001 13.5445 19.9079 13.3804 19.7438C13.2163 19.5797 13.1242 19.3572 13.1242 19.1251V3.73735L9.36865 7.4946C9.2873 7.57595 9.19072 7.64049 9.08442 7.68452C8.97813 7.72854 8.8642 7.7512 8.74915 7.7512C8.6341 7.7512 8.52018 7.72854 8.41388 7.68452C8.30759 7.64049 8.21101 7.57595 8.12965 7.4946C8.0483 7.41325 7.98376 7.31666 7.93974 7.21037C7.89571 7.10408 7.87305 6.99015 7.87305 6.8751C7.87305 6.76005 7.89571 6.64612 7.93974 6.53983C7.98376 6.43353 8.0483 6.33695 8.12965 6.2556L13.3797 1.0056Z" fill="black"/>
</svg>
